<?xml version="1.0" encoding="UTF-8" standalone="no"?>
<!DOCTYPE svg PUBLIC "-//W3C//DTD SVG 1.1//EN"
 "http://www.w3.org/Graphics/SVG/1.1/DTD/svg11.dtd">
<!-- Generated by graphviz version 2.40.1 (20161225.0304)
 -->
<!-- Title: snakemake_dag Pages: 1 -->
<svg width="1058pt" height="1134pt"
 viewBox="0.00 0.00 1058.00 1134.00" xmlns="http://www.w3.org/2000/svg" xmlns:xlink="http://www.w3.org/1999/xlink">
<g id="graph0" class="graph" transform="scale(1 1) rotate(0) translate(4 1130)">
<title>snakemake_dag</title>
<polygon fill="#ffffff" stroke="transparent" points="-4,4 -4,-1130 1054,-1130 1054,4 -4,4"/>
<!-- 0 -->
<g id="node1" class="node">
<title>0</title>
<path fill="none" stroke="#568ad8" stroke-width="2" d="M289,-36C289,-36 256,-36 256,-36 250,-36 244,-30 244,-24 244,-24 244,-12 244,-12 244,-6 250,0 256,0 256,0 289,0 289,0 295,0 301,-6 301,-12 301,-12 301,-24 301,-24 301,-30 295,-36 289,-36"/>
<text text-anchor="middle" x="272.5" y="-15.5" font-family="sans" font-size="10.00" fill="#000000">bamstat</text>
</g>
<!-- 1 -->
<g id="node2" class="node">
<title>1</title>
<path fill="none" stroke="#568ad8" stroke-width="2" d="M820,-36C820,-36 787,-36 787,-36 781,-36 775,-30 775,-24 775,-24 775,-12 775,-12 775,-6 781,0 787,0 787,0 820,0 820,0 826,0 832,-6 832,-12 832,-12 832,-24 832,-24 832,-30 826,-36 820,-36"/>
<text text-anchor="middle" x="803.5" y="-15.5" font-family="sans" font-size="10.00" fill="#000000">bamstat</text>
</g>
<!-- 2 -->
<g id="node3" class="node">
<title>2</title>
<path fill="none" stroke="#d85656" stroke-width="2" d="M312.5,-108C312.5,-108 232.5,-108 232.5,-108 226.5,-108 220.5,-102 220.5,-96 220.5,-96 220.5,-84 220.5,-84 220.5,-78 226.5,-72 232.5,-72 232.5,-72 312.5,-72 312.5,-72 318.5,-72 324.5,-78 324.5,-84 324.5,-84 324.5,-96 324.5,-96 324.5,-102 318.5,-108 312.5,-108"/>
<text text-anchor="middle" x="272.5" y="-87.5" font-family="sans" font-size="10.00" fill="#000000">gatk4_ApplyBQSR</text>
</g>
<!-- 2&#45;&gt;0 -->
<g id="edge1" class="edge">
<title>2&#45;&gt;0</title>
<path fill="none" stroke="#c0c0c0" stroke-width="2" d="M272.5,-71.8314C272.5,-64.131 272.5,-54.9743 272.5,-46.4166"/>
<polygon fill="#c0c0c0" stroke="#c0c0c0" stroke-width="2" points="276.0001,-46.4132 272.5,-36.4133 269.0001,-46.4133 276.0001,-46.4132"/>
</g>
<!-- 3 -->
<g id="node4" class="node">
<title>3</title>
<path fill="none" stroke="#d85656" stroke-width="2" d="M843.5,-108C843.5,-108 763.5,-108 763.5,-108 757.5,-108 751.5,-102 751.5,-96 751.5,-96 751.5,-84 751.5,-84 751.5,-78 757.5,-72 763.5,-72 763.5,-72 843.5,-72 843.5,-72 849.5,-72 855.5,-78 855.5,-84 855.5,-84 855.5,-96 855.5,-96 855.5,-102 849.5,-108 843.5,-108"/>
<text text-anchor="middle" x="803.5" y="-87.5" font-family="sans" font-size="10.00" fill="#000000">gatk4_ApplyBQSR</text>
</g>
<!-- 3&#45;&gt;1 -->
<g id="edge2" class="edge">
<title>3&#45;&gt;1</title>
<path fill="none" stroke="#c0c0c0" stroke-width="2" d="M803.5,-71.8314C803.5,-64.131 803.5,-54.9743 803.5,-46.4166"/>
<polygon fill="#c0c0c0" stroke="#c0c0c0" stroke-width="2" points="807.0001,-46.4132 803.5,-36.4133 800.0001,-46.4133 807.0001,-46.4132"/>
</g>
<!-- 4 -->
<g id="node5" class="node">
<title>4</title>
<path fill="none" stroke="#56a9d8" stroke-width="2" d="M373.5,-180C373.5,-180 265.5,-180 265.5,-180 259.5,-180 253.5,-174 253.5,-168 253.5,-168 253.5,-156 253.5,-156 253.5,-150 259.5,-144 265.5,-144 265.5,-144 373.5,-144 373.5,-144 379.5,-144 385.5,-150 385.5,-156 385.5,-156 385.5,-168 385.5,-168 385.5,-174 379.5,-180 373.5,-180"/>
<text text-anchor="middle" x="319.5" y="-159.5" font-family="sans" font-size="10.00" fill="#000000">gatk4_BaseRecalibrator</text>
</g>
<!-- 4&#45;&gt;2 -->
<g id="edge3" class="edge">
<title>4&#45;&gt;2</title>
<path fill="none" stroke="#c0c0c0" stroke-width="2" d="M307.6399,-143.8314C302.3371,-135.7079 295.9763,-125.9637 290.1327,-117.0118"/>
<polygon fill="#c0c0c0" stroke="#c0c0c0" stroke-width="2" points="292.9169,-114.8739 284.5198,-108.4133 287.0552,-118.7003 292.9169,-114.8739"/>
</g>
<!-- 5 -->
<g id="node6" class="node">
<title>5</title>
<path fill="none" stroke="#567bd8" stroke-width="2" d="M281,-324C281,-324 246,-324 246,-324 240,-324 234,-318 234,-312 234,-312 234,-300 234,-300 234,-294 240,-288 246,-288 246,-288 281,-288 281,-288 287,-288 293,-294 293,-300 293,-300 293,-312 293,-312 293,-318 287,-324 281,-324"/>
<text text-anchor="middle" x="263.5" y="-303.5" font-family="sans" font-size="10.00" fill="#000000">intersect</text>
</g>
<!-- 5&#45;&gt;2 -->
<g id="edge4" class="edge">
<title>5&#45;&gt;2</title>
<path fill="none" stroke="#c0c0c0" stroke-width="2" d="M257.2163,-287.7647C247.7061,-257.5032 232.0221,-195.1717 244.5,-144 246.7539,-134.7566 250.8893,-125.3312 255.3027,-116.9966"/>
<polygon fill="#c0c0c0" stroke="#c0c0c0" stroke-width="2" points="258.4471,-118.5463 260.3183,-108.118 252.3524,-115.1033 258.4471,-118.5463"/>
</g>
<!-- 5&#45;&gt;4 -->
<g id="edge7" class="edge">
<title>5&#45;&gt;4</title>
<path fill="none" stroke="#c0c0c0" stroke-width="2" d="M265.2283,-287.782C267.4771,-269.1402 272.384,-239.637 282.5,-216 286.5487,-206.5397 292.3622,-197.016 298.1855,-188.6574"/>
<polygon fill="#c0c0c0" stroke="#c0c0c0" stroke-width="2" points="301.1267,-190.5641 304.1841,-180.4199 295.4681,-186.4434 301.1267,-190.5641"/>
</g>
<!-- 8 -->
<g id="node9" class="node">
<title>8</title>
<path fill="none" stroke="#56d8d0" stroke-width="2" d="M373.5,-252C373.5,-252 303.5,-252 303.5,-252 297.5,-252 291.5,-246 291.5,-240 291.5,-240 291.5,-228 291.5,-228 291.5,-222 297.5,-216 303.5,-216 303.5,-216 373.5,-216 373.5,-216 379.5,-216 385.5,-222 385.5,-228 385.5,-228 385.5,-240 385.5,-240 385.5,-246 379.5,-252 373.5,-252"/>
<text text-anchor="middle" x="338.5" y="-231.5" font-family="sans" font-size="10.00" fill="#000000">samtools_index</text>
</g>
<!-- 5&#45;&gt;8 -->
<g id="edge13" class="edge">
<title>5&#45;&gt;8</title>
<path fill="none" stroke="#c0c0c0" stroke-width="2" d="M282.4257,-287.8314C291.4857,-279.1337 302.4809,-268.5783 312.3265,-259.1265"/>
<polygon fill="#c0c0c0" stroke="#c0c0c0" stroke-width="2" points="314.7904,-261.613 319.5804,-252.1628 309.9426,-256.5633 314.7904,-261.613"/>
</g>
<!-- 6 -->
<g id="node7" class="node">
<title>6</title>
<path fill="none" stroke="#56a9d8" stroke-width="2" d="M904.5,-180C904.5,-180 796.5,-180 796.5,-180 790.5,-180 784.5,-174 784.5,-168 784.5,-168 784.5,-156 784.5,-156 784.5,-150 790.5,-144 796.5,-144 796.5,-144 904.5,-144 904.5,-144 910.5,-144 916.5,-150 916.5,-156 916.5,-156 916.5,-168 916.5,-168 916.5,-174 910.5,-180 904.5,-180"/>
<text text-anchor="middle" x="850.5" y="-159.5" font-family="sans" font-size="10.00" fill="#000000">gatk4_BaseRecalibrator</text>
</g>
<!-- 6&#45;&gt;3 -->
<g id="edge5" class="edge">
<title>6&#45;&gt;3</title>
<path fill="none" stroke="#c0c0c0" stroke-width="2" d="M838.6399,-143.8314C833.3371,-135.7079 826.9763,-125.9637 821.1327,-117.0118"/>
<polygon fill="#c0c0c0" stroke="#c0c0c0" stroke-width="2" points="823.9169,-114.8739 815.5198,-108.4133 818.0552,-118.7003 823.9169,-114.8739"/>
</g>
<!-- 7 -->
<g id="node8" class="node">
<title>7</title>
<path fill="none" stroke="#567bd8" stroke-width="2" d="M812,-324C812,-324 777,-324 777,-324 771,-324 765,-318 765,-312 765,-312 765,-300 765,-300 765,-294 771,-288 777,-288 777,-288 812,-288 812,-288 818,-288 824,-294 824,-300 824,-300 824,-312 824,-312 824,-318 818,-324 812,-324"/>
<text text-anchor="middle" x="794.5" y="-303.5" font-family="sans" font-size="10.00" fill="#000000">intersect</text>
</g>
<!-- 7&#45;&gt;3 -->
<g id="edge6" class="edge">
<title>7&#45;&gt;3</title>
<path fill="none" stroke="#c0c0c0" stroke-width="2" d="M788.2163,-287.7647C778.7061,-257.5032 763.0221,-195.1717 775.5,-144 777.7539,-134.7566 781.8893,-125.3312 786.3027,-116.9966"/>
<polygon fill="#c0c0c0" stroke="#c0c0c0" stroke-width="2" points="789.4471,-118.5463 791.3183,-108.118 783.3524,-115.1033 789.4471,-118.5463"/>
</g>
<!-- 7&#45;&gt;6 -->
<g id="edge10" class="edge">
<title>7&#45;&gt;6</title>
<path fill="none" stroke="#c0c0c0" stroke-width="2" d="M796.2283,-287.782C798.4771,-269.1402 803.384,-239.637 813.5,-216 817.5487,-206.5397 823.3622,-197.016 829.1855,-188.6574"/>
<polygon fill="#c0c0c0" stroke="#c0c0c0" stroke-width="2" points="832.1267,-190.5641 835.1841,-180.4199 826.4681,-186.4434 832.1267,-190.5641"/>
</g>
<!-- 10 -->
<g id="node11" class="node">
<title>10</title>
<path fill="none" stroke="#56d8d0" stroke-width="2" d="M904.5,-252C904.5,-252 834.5,-252 834.5,-252 828.5,-252 822.5,-246 822.5,-240 822.5,-240 822.5,-228 822.5,-228 822.5,-222 828.5,-216 834.5,-216 834.5,-216 904.5,-216 904.5,-216 910.5,-216 916.5,-222 916.5,-228 916.5,-228 916.5,-240 916.5,-240 916.5,-246 910.5,-252 904.5,-252"/>
<text text-anchor="middle" x="869.5" y="-231.5" font-family="sans" font-size="10.00" fill="#000000">samtools_index</text>
</g>
<!-- 7&#45;&gt;10 -->
<g id="edge16" class="edge">
<title>7&#45;&gt;10</title>
<path fill="none" stroke="#c0c0c0" stroke-width="2" d="M813.4257,-287.8314C822.4857,-279.1337 833.4809,-268.5783 843.3265,-259.1265"/>
<polygon fill="#c0c0c0" stroke="#c0c0c0" stroke-width="2" points="845.7904,-261.613 850.5804,-252.1628 840.9426,-256.5633 845.7904,-261.613"/>
</g>
<!-- 8&#45;&gt;4 -->
<g id="edge8" class="edge">
<title>8&#45;&gt;4</title>
<path fill="none" stroke="#c0c0c0" stroke-width="2" d="M333.7055,-215.8314C331.6511,-208.0463 329.204,-198.7729 326.9244,-190.1347"/>
<polygon fill="#c0c0c0" stroke="#c0c0c0" stroke-width="2" points="330.2948,-189.1892 324.3591,-180.4133 323.5265,-190.9753 330.2948,-189.1892"/>
</g>
<!-- 9 -->
<g id="node10" class="node">
<title>9</title>
<path fill="none" stroke="#80d856" stroke-width="2" d="M320,-396C320,-396 207,-396 207,-396 201,-396 195,-390 195,-384 195,-384 195,-372 195,-372 195,-366 201,-360 207,-360 207,-360 320,-360 320,-360 326,-360 332,-366 332,-372 332,-372 332,-384 332,-384 332,-390 326,-396 320,-396"/>
<text text-anchor="middle" x="263.5" y="-375.5" font-family="sans" font-size="10.00" fill="#000000">MBC_remove_duplicates</text>
</g>
<!-- 9&#45;&gt;5 -->
<g id="edge9" class="edge">
<title>9&#45;&gt;5</title>
<path fill="none" stroke="#c0c0c0" stroke-width="2" d="M263.5,-359.8314C263.5,-352.131 263.5,-342.9743 263.5,-334.4166"/>
<polygon fill="#c0c0c0" stroke="#c0c0c0" stroke-width="2" points="267.0001,-334.4132 263.5,-324.4133 260.0001,-334.4133 267.0001,-334.4132"/>
</g>
<!-- 10&#45;&gt;6 -->
<g id="edge11" class="edge">
<title>10&#45;&gt;6</title>
<path fill="none" stroke="#c0c0c0" stroke-width="2" d="M864.7055,-215.8314C862.6511,-208.0463 860.204,-198.7729 857.9244,-190.1347"/>
<polygon fill="#c0c0c0" stroke="#c0c0c0" stroke-width="2" points="861.2948,-189.1892 855.3591,-180.4133 854.5265,-190.9753 861.2948,-189.1892"/>
</g>
<!-- 11 -->
<g id="node12" class="node">
<title>11</title>
<path fill="none" stroke="#80d856" stroke-width="2" d="M851,-396C851,-396 738,-396 738,-396 732,-396 726,-390 726,-384 726,-384 726,-372 726,-372 726,-366 732,-360 738,-360 738,-360 851,-360 851,-360 857,-360 863,-366 863,-372 863,-372 863,-384 863,-384 863,-390 857,-396 851,-396"/>
<text text-anchor="middle" x="794.5" y="-375.5" font-family="sans" font-size="10.00" fill="#000000">MBC_remove_duplicates</text>
</g>
<!-- 11&#45;&gt;7 -->
<g id="edge12" class="edge">
<title>11&#45;&gt;7</title>
<path fill="none" stroke="#c0c0c0" stroke-width="2" d="M794.5,-359.8314C794.5,-352.131 794.5,-342.9743 794.5,-334.4166"/>
<polygon fill="#c0c0c0" stroke="#c0c0c0" stroke-width="2" points="798.0001,-334.4132 794.5,-324.4133 791.0001,-334.4133 798.0001,-334.4132"/>
</g>
<!-- 12 -->
<g id="node13" class="node">
<title>12</title>
<path fill="none" stroke="#d6d856" stroke-width="2" d="M292,-540C292,-540 235,-540 235,-540 229,-540 223,-534 223,-528 223,-528 223,-516 223,-516 223,-510 229,-504 235,-504 235,-504 292,-504 292,-504 298,-504 304,-510 304,-516 304,-516 304,-528 304,-528 304,-534 298,-540 292,-540"/>
<text text-anchor="middle" x="263.5" y="-519.5" font-family="sans" font-size="10.00" fill="#000000">sam_cleanup</text>
</g>
<!-- 12&#45;&gt;9 -->
<g id="edge14" class="edge">
<title>12&#45;&gt;9</title>
<path fill="none" stroke="#c0c0c0" stroke-width="2" d="M253.0441,-503.6605C247.8542,-493.5026 242.1409,-480.4443 239.5,-468 236.1785,-452.3486 236.1785,-447.6514 239.5,-432 241.3981,-423.0557 244.8835,-413.7941 248.6209,-405.5203"/>
<polygon fill="#c0c0c0" stroke="#c0c0c0" stroke-width="2" points="251.8568,-406.8676 253.0441,-396.3395 245.5505,-403.8294 251.8568,-406.8676"/>
</g>
<!-- 13 -->
<g id="node14" class="node">
<title>13</title>
<path fill="none" stroke="#a7d856" stroke-width="2" d="M354.5,-468C354.5,-468 260.5,-468 260.5,-468 254.5,-468 248.5,-462 248.5,-456 248.5,-456 248.5,-444 248.5,-444 248.5,-438 254.5,-432 260.5,-432 260.5,-432 354.5,-432 354.5,-432 360.5,-432 366.5,-438 366.5,-444 366.5,-444 366.5,-456 366.5,-456 366.5,-462 360.5,-468 354.5,-468"/>
<text text-anchor="middle" x="307.5" y="-447.5" font-family="sans" font-size="10.00" fill="#000000">samtools_index_sort</text>
</g>
<!-- 12&#45;&gt;13 -->
<g id="edge20" class="edge">
<title>12&#45;&gt;13</title>
<path fill="none" stroke="#c0c0c0" stroke-width="2" d="M274.6031,-503.8314C279.5674,-495.7079 285.5222,-485.9637 290.9928,-477.0118"/>
<polygon fill="#c0c0c0" stroke="#c0c0c0" stroke-width="2" points="294.0194,-478.7712 296.2474,-468.4133 288.0464,-475.121 294.0194,-478.7712"/>
</g>
<!-- 13&#45;&gt;9 -->
<g id="edge15" class="edge">
<title>13&#45;&gt;9</title>
<path fill="none" stroke="#c0c0c0" stroke-width="2" d="M296.3969,-431.8314C291.4326,-423.7079 285.4778,-413.9637 280.0072,-405.0118"/>
<polygon fill="#c0c0c0" stroke="#c0c0c0" stroke-width="2" points="282.9536,-403.121 274.7526,-396.4133 276.9806,-406.7712 282.9536,-403.121"/>
</g>
<!-- 14 -->
<g id="node15" class="node">
<title>14</title>
<path fill="none" stroke="#d6d856" stroke-width="2" d="M824,-540C824,-540 767,-540 767,-540 761,-540 755,-534 755,-528 755,-528 755,-516 755,-516 755,-510 761,-504 767,-504 767,-504 824,-504 824,-504 830,-504 836,-510 836,-516 836,-516 836,-528 836,-528 836,-534 830,-540 824,-540"/>
<text text-anchor="middle" x="795.5" y="-519.5" font-family="sans" font-size="10.00" fill="#000000">sam_cleanup</text>
</g>
<!-- 14&#45;&gt;11 -->
<g id="edge17" class="edge">
<title>14&#45;&gt;11</title>
<path fill="none" stroke="#c0c0c0" stroke-width="2" d="M784.612,-503.7133C779.2071,-493.5709 773.2555,-480.5105 770.5,-468 767.0585,-452.3745 767.1785,-447.6514 770.5,-432 772.3981,-423.0557 775.8835,-413.7941 779.6209,-405.5203"/>
<polygon fill="#c0c0c0" stroke="#c0c0c0" stroke-width="2" points="782.8568,-406.8676 784.0441,-396.3395 776.5505,-403.8294 782.8568,-406.8676"/>
</g>
<!-- 15 -->
<g id="node16" class="node">
<title>15</title>
<path fill="none" stroke="#a7d856" stroke-width="2" d="M885.5,-468C885.5,-468 791.5,-468 791.5,-468 785.5,-468 779.5,-462 779.5,-456 779.5,-456 779.5,-444 779.5,-444 779.5,-438 785.5,-432 791.5,-432 791.5,-432 885.5,-432 885.5,-432 891.5,-432 897.5,-438 897.5,-444 897.5,-444 897.5,-456 897.5,-456 897.5,-462 891.5,-468 885.5,-468"/>
<text text-anchor="middle" x="838.5" y="-447.5" font-family="sans" font-size="10.00" fill="#000000">samtools_index_sort</text>
</g>
<!-- 14&#45;&gt;15 -->
<g id="edge22" class="edge">
<title>14&#45;&gt;15</title>
<path fill="none" stroke="#c0c0c0" stroke-width="2" d="M806.3507,-503.8314C811.2023,-495.7079 817.0217,-485.9637 822.368,-477.0118"/>
<polygon fill="#c0c0c0" stroke="#c0c0c0" stroke-width="2" points="825.3806,-478.7933 827.5032,-468.4133 819.3708,-475.2041 825.3806,-478.7933"/>
</g>
<!-- 15&#45;&gt;11 -->
<g id="edge18" class="edge">
<title>15&#45;&gt;11</title>
<path fill="none" stroke="#c0c0c0" stroke-width="2" d="M827.3969,-431.8314C822.4326,-423.7079 816.4778,-413.9637 811.0072,-405.0118"/>
<polygon fill="#c0c0c0" stroke="#c0c0c0" stroke-width="2" points="813.9536,-403.121 805.7526,-396.4133 807.9806,-406.7712 813.9536,-403.121"/>
</g>
<!-- 16 -->
<g id="node17" class="node">
<title>16</title>
<path fill="none" stroke="#56d86b" stroke-width="2" d="M278.5,-612C278.5,-612 248.5,-612 248.5,-612 242.5,-612 236.5,-606 236.5,-600 236.5,-600 236.5,-588 236.5,-588 236.5,-582 242.5,-576 248.5,-576 248.5,-576 278.5,-576 278.5,-576 284.5,-576 290.5,-582 290.5,-588 290.5,-588 290.5,-600 290.5,-600 290.5,-606 284.5,-612 278.5,-612"/>
<text text-anchor="middle" x="263.5" y="-591.5" font-family="sans" font-size="10.00" fill="#000000">bwa</text>
</g>
<!-- 16&#45;&gt;12 -->
<g id="edge19" class="edge">
<title>16&#45;&gt;12</title>
<path fill="none" stroke="#c0c0c0" stroke-width="2" d="M263.5,-575.8314C263.5,-568.131 263.5,-558.9743 263.5,-550.4166"/>
<polygon fill="#c0c0c0" stroke="#c0c0c0" stroke-width="2" points="267.0001,-550.4132 263.5,-540.4133 260.0001,-550.4133 267.0001,-550.4132"/>
</g>
<!-- 17 -->
<g id="node18" class="node">
<title>17</title>
<path fill="none" stroke="#56d86b" stroke-width="2" d="M810.5,-612C810.5,-612 780.5,-612 780.5,-612 774.5,-612 768.5,-606 768.5,-600 768.5,-600 768.5,-588 768.5,-588 768.5,-582 774.5,-576 780.5,-576 780.5,-576 810.5,-576 810.5,-576 816.5,-576 822.5,-582 822.5,-588 822.5,-588 822.5,-600 822.5,-600 822.5,-606 816.5,-612 810.5,-612"/>
<text text-anchor="middle" x="795.5" y="-591.5" font-family="sans" font-size="10.00" fill="#000000">bwa</text>
</g>
<!-- 17&#45;&gt;14 -->
<g id="edge21" class="edge">
<title>17&#45;&gt;14</title>
<path fill="none" stroke="#c0c0c0" stroke-width="2" d="M795.5,-575.8314C795.5,-568.131 795.5,-558.9743 795.5,-550.4166"/>
<polygon fill="#c0c0c0" stroke="#c0c0c0" stroke-width="2" points="799.0001,-550.4132 795.5,-540.4133 792.0001,-550.4133 799.0001,-550.4132"/>
</g>
<!-- 18 -->
<g id="node19" class="node">
<title>18</title>
<path fill="none" stroke="#d86e56" stroke-width="2" d="M278.5,-684C278.5,-684 248.5,-684 248.5,-684 242.5,-684 236.5,-678 236.5,-672 236.5,-672 236.5,-660 236.5,-660 236.5,-654 242.5,-648 248.5,-648 248.5,-648 278.5,-648 278.5,-648 284.5,-648 290.5,-654 290.5,-660 290.5,-660 290.5,-672 290.5,-672 290.5,-678 284.5,-684 278.5,-684"/>
<text text-anchor="middle" x="263.5" y="-663.5" font-family="sans" font-size="10.00" fill="#000000">trim</text>
</g>
<!-- 18&#45;&gt;16 -->
<g id="edge23" class="edge">
<title>18&#45;&gt;16</title>
<path fill="none" stroke="#c0c0c0" stroke-width="2" d="M263.5,-647.8314C263.5,-640.131 263.5,-630.9743 263.5,-622.4166"/>
<polygon fill="#c0c0c0" stroke="#c0c0c0" stroke-width="2" points="267.0001,-622.4132 263.5,-612.4133 260.0001,-622.4133 267.0001,-622.4132"/>
</g>
<!-- 19 -->
<g id="node20" class="node">
<title>19</title>
<path fill="none" stroke="#d86e56" stroke-width="2" d="M810.5,-684C810.5,-684 780.5,-684 780.5,-684 774.5,-684 768.5,-678 768.5,-672 768.5,-672 768.5,-660 768.5,-660 768.5,-654 774.5,-648 780.5,-648 780.5,-648 810.5,-648 810.5,-648 816.5,-648 822.5,-654 822.5,-660 822.5,-660 822.5,-672 822.5,-672 822.5,-678 816.5,-684 810.5,-684"/>
<text text-anchor="middle" x="795.5" y="-663.5" font-family="sans" font-size="10.00" fill="#000000">trim</text>
</g>
<!-- 19&#45;&gt;17 -->
<g id="edge24" class="edge">
<title>19&#45;&gt;17</title>
<path fill="none" stroke="#c0c0c0" stroke-width="2" d="M795.5,-647.8314C795.5,-640.131 795.5,-630.9743 795.5,-622.4166"/>
<polygon fill="#c0c0c0" stroke="#c0c0c0" stroke-width="2" points="799.0001,-622.4132 795.5,-612.4133 792.0001,-622.4133 799.0001,-622.4132"/>
</g>
<!-- 20 -->
<g id="node21" class="node">
<title>20</title>
<path fill="none" stroke="#56d87b" stroke-width="2" d="M242,-756C242,-756 189,-756 189,-756 183,-756 177,-750 177,-744 177,-744 177,-732 177,-732 177,-726 183,-720 189,-720 189,-720 242,-720 242,-720 248,-720 254,-726 254,-732 254,-732 254,-744 254,-744 254,-750 248,-756 242,-756"/>
<text text-anchor="middle" x="215.5" y="-735.5" font-family="sans" font-size="10.00" fill="#000000">add_UMI_R1</text>
</g>
<!-- 20&#45;&gt;18 -->
<g id="edge25" class="edge">
<title>20&#45;&gt;18</title>
<path fill="none" stroke="#c0c0c0" stroke-width="2" d="M227.6124,-719.8314C233.0281,-711.7079 239.5242,-701.9637 245.4921,-693.0118"/>
<polygon fill="#c0c0c0" stroke="#c0c0c0" stroke-width="2" points="248.5896,-694.6753 251.2245,-684.4133 242.7653,-690.7923 248.5896,-694.6753"/>
</g>
<!-- 21 -->
<g id="node22" class="node">
<title>21</title>
<path fill="none" stroke="#56d8d8" stroke-width="2" d="M337,-756C337,-756 284,-756 284,-756 278,-756 272,-750 272,-744 272,-744 272,-732 272,-732 272,-726 278,-720 284,-720 284,-720 337,-720 337,-720 343,-720 349,-726 349,-732 349,-732 349,-744 349,-744 349,-750 343,-756 337,-756"/>
<text text-anchor="middle" x="310.5" y="-735.5" font-family="sans" font-size="10.00" fill="#000000">add_UMI_R3</text>
</g>
<!-- 21&#45;&gt;18 -->
<g id="edge26" class="edge">
<title>21&#45;&gt;18</title>
<path fill="none" stroke="#c0c0c0" stroke-width="2" d="M298.6399,-719.8314C293.3371,-711.7079 286.9763,-701.9637 281.1327,-693.0118"/>
<polygon fill="#c0c0c0" stroke="#c0c0c0" stroke-width="2" points="283.9169,-690.8739 275.5198,-684.4133 278.0552,-694.7003 283.9169,-690.8739"/>
</g>
<!-- 22 -->
<g id="node23" class="node">
<title>22</title>
<path fill="none" stroke="#56d87b" stroke-width="2" d="M775,-756C775,-756 722,-756 722,-756 716,-756 710,-750 710,-744 710,-744 710,-732 710,-732 710,-726 716,-720 722,-720 722,-720 775,-720 775,-720 781,-720 787,-726 787,-732 787,-732 787,-744 787,-744 787,-750 781,-756 775,-756"/>
<text text-anchor="middle" x="748.5" y="-735.5" font-family="sans" font-size="10.00" fill="#000000">add_UMI_R1</text>
</g>
<!-- 22&#45;&gt;19 -->
<g id="edge27" class="edge">
<title>22&#45;&gt;19</title>
<path fill="none" stroke="#c0c0c0" stroke-width="2" d="M760.3601,-719.8314C765.6629,-711.7079 772.0237,-701.9637 777.8673,-693.0118"/>
<polygon fill="#c0c0c0" stroke="#c0c0c0" stroke-width="2" points="780.9448,-694.7003 783.4802,-684.4133 775.0831,-690.8739 780.9448,-694.7003"/>
</g>
<!-- 23 -->
<g id="node24" class="node">
<title>23</title>
<path fill="none" stroke="#56d8d8" stroke-width="2" d="M870,-756C870,-756 817,-756 817,-756 811,-756 805,-750 805,-744 805,-744 805,-732 805,-732 805,-726 811,-720 817,-720 817,-720 870,-720 870,-720 876,-720 882,-726 882,-732 882,-732 882,-744 882,-744 882,-750 876,-756 870,-756"/>
<text text-anchor="middle" x="843.5" y="-735.5" font-family="sans" font-size="10.00" fill="#000000">add_UMI_R3</text>
</g>
<!-- 23&#45;&gt;19 -->
<g id="edge28" class="edge">
<title>23&#45;&gt;19</title>
<path fill="none" stroke="#c0c0c0" stroke-width="2" d="M831.3876,-719.8314C825.9719,-711.7079 819.4758,-701.9637 813.5079,-693.0118"/>
<polygon fill="#c0c0c0" stroke="#c0c0c0" stroke-width="2" points="816.2347,-690.7923 807.7755,-684.4133 810.4104,-694.6753 816.2347,-690.7923"/>
</g>
<!-- 24 -->
<g id="node25" class="node">
<title>24</title>
<path fill="none" stroke="#88d856" stroke-width="2" d="M151,-833C151,-833 12,-833 12,-833 6,-833 0,-827 0,-821 0,-821 0,-804 0,-804 0,-798 6,-792 12,-792 12,-792 151,-792 151,-792 157,-792 163,-798 163,-804 163,-804 163,-821 163,-821 163,-827 157,-833 151,-833"/>
<text text-anchor="middle" x="81.5" y="-821" font-family="sans" font-size="10.00" fill="#000000">rejoin_sample</text>
<text text-anchor="middle" x="81.5" y="-810" font-family="sans" font-size="10.00" fill="#000000">direction: R1</text>
<text text-anchor="middle" x="81.5" y="-799" font-family="sans" font-size="10.00" fill="#000000">sample: Keimbahn/KB0428_m</text>
</g>
<!-- 24&#45;&gt;20 -->
<g id="edge29" class="edge">
<title>24&#45;&gt;20</title>
<path fill="none" stroke="#c0c0c0" stroke-width="2" d="M118.4708,-791.9453C135.6225,-782.4095 156.0847,-771.0332 173.7868,-761.1913"/>
<polygon fill="#c0c0c0" stroke="#c0c0c0" stroke-width="2" points="175.7208,-764.1207 182.7601,-756.2024 172.3193,-758.0026 175.7208,-764.1207"/>
</g>
<!-- 25 -->
<g id="node26" class="node">
<title>25</title>
<path fill="none" stroke="#88d856" stroke-width="2" d="M332,-833C332,-833 193,-833 193,-833 187,-833 181,-827 181,-821 181,-821 181,-804 181,-804 181,-798 187,-792 193,-792 193,-792 332,-792 332,-792 338,-792 344,-798 344,-804 344,-804 344,-821 344,-821 344,-827 338,-833 332,-833"/>
<text text-anchor="middle" x="262.5" y="-821" font-family="sans" font-size="10.00" fill="#000000">rejoin_sample</text>
<text text-anchor="middle" x="262.5" y="-810" font-family="sans" font-size="10.00" fill="#000000">direction: R2</text>
<text text-anchor="middle" x="262.5" y="-799" font-family="sans" font-size="10.00" fill="#000000">sample: Keimbahn/KB0428_m</text>
</g>
<!-- 25&#45;&gt;20 -->
<g id="edge30" class="edge">
<title>25&#45;&gt;20</title>
<path fill="none" stroke="#c0c0c0" stroke-width="2" d="M249.4079,-791.7476C244.1113,-783.352 237.9308,-773.5551 232.3079,-764.6423"/>
<polygon fill="#c0c0c0" stroke="#c0c0c0" stroke-width="2" points="235.2201,-762.6988 226.9243,-756.1087 229.2998,-766.4338 235.2201,-762.6988"/>
</g>
<!-- 25&#45;&gt;21 -->
<g id="edge32" class="edge">
<title>25&#45;&gt;21</title>
<path fill="none" stroke="#c0c0c0" stroke-width="2" d="M275.8707,-791.7476C281.2799,-783.352 287.592,-773.5551 293.3345,-764.6423"/>
<polygon fill="#c0c0c0" stroke="#c0c0c0" stroke-width="2" points="296.3587,-766.4106 298.8327,-756.1087 290.4743,-762.6193 296.3587,-766.4106"/>
</g>
<!-- 26 -->
<g id="node27" class="node">
<title>26</title>
<path fill="none" stroke="#88d856" stroke-width="2" d="M513,-833C513,-833 374,-833 374,-833 368,-833 362,-827 362,-821 362,-821 362,-804 362,-804 362,-798 368,-792 374,-792 374,-792 513,-792 513,-792 519,-792 525,-798 525,-804 525,-804 525,-821 525,-821 525,-827 519,-833 513,-833"/>
<text text-anchor="middle" x="443.5" y="-821" font-family="sans" font-size="10.00" fill="#000000">rejoin_sample</text>
<text text-anchor="middle" x="443.5" y="-810" font-family="sans" font-size="10.00" fill="#000000">direction: R3</text>
<text text-anchor="middle" x="443.5" y="-799" font-family="sans" font-size="10.00" fill="#000000">sample: Keimbahn/KB0428_m</text>
</g>
<!-- 26&#45;&gt;21 -->
<g id="edge31" class="edge">
<title>26&#45;&gt;21</title>
<path fill="none" stroke="#c0c0c0" stroke-width="2" d="M406.8051,-791.9453C389.7814,-782.4095 369.4719,-771.0332 351.9019,-761.1913"/>
<polygon fill="#c0c0c0" stroke="#c0c0c0" stroke-width="2" points="353.4306,-758.0359 342.9956,-756.2024 350.0096,-764.1431 353.4306,-758.0359"/>
</g>
<!-- 27 -->
<g id="node28" class="node">
<title>27</title>
<path fill="none" stroke="#88d856" stroke-width="2" d="M688,-833C688,-833 555,-833 555,-833 549,-833 543,-827 543,-821 543,-821 543,-804 543,-804 543,-798 549,-792 555,-792 555,-792 688,-792 688,-792 694,-792 700,-798 700,-804 700,-804 700,-821 700,-821 700,-827 694,-833 688,-833"/>
<text text-anchor="middle" x="621.5" y="-821" font-family="sans" font-size="10.00" fill="#000000">rejoin_sample</text>
<text text-anchor="middle" x="621.5" y="-810" font-family="sans" font-size="10.00" fill="#000000">direction: R1</text>
<text text-anchor="middle" x="621.5" y="-799" font-family="sans" font-size="10.00" fill="#000000">sample: Keimbahn/KB0428_f</text>
</g>
<!-- 27&#45;&gt;22 -->
<g id="edge33" class="edge">
<title>27&#45;&gt;22</title>
<path fill="none" stroke="#c0c0c0" stroke-width="2" d="M656.5395,-791.9453C672.6461,-782.497 691.8329,-771.2417 708.5034,-761.4626"/>
<polygon fill="#c0c0c0" stroke="#c0c0c0" stroke-width="2" points="710.6159,-764.2812 717.4704,-756.2024 707.074,-758.2434 710.6159,-764.2812"/>
</g>
<!-- 28 -->
<g id="node29" class="node">
<title>28</title>
<path fill="none" stroke="#88d856" stroke-width="2" d="M863,-833C863,-833 730,-833 730,-833 724,-833 718,-827 718,-821 718,-821 718,-804 718,-804 718,-798 724,-792 730,-792 730,-792 863,-792 863,-792 869,-792 875,-798 875,-804 875,-804 875,-821 875,-821 875,-827 869,-833 863,-833"/>
<text text-anchor="middle" x="796.5" y="-821" font-family="sans" font-size="10.00" fill="#000000">rejoin_sample</text>
<text text-anchor="middle" x="796.5" y="-810" font-family="sans" font-size="10.00" fill="#000000">direction: R2</text>
<text text-anchor="middle" x="796.5" y="-799" font-family="sans" font-size="10.00" fill="#000000">sample: Keimbahn/KB0428_f</text>
</g>
<!-- 28&#45;&gt;22 -->
<g id="edge34" class="edge">
<title>28&#45;&gt;22</title>
<path fill="none" stroke="#c0c0c0" stroke-width="2" d="M783.1293,-791.7476C777.7201,-783.352 771.408,-773.5551 765.6655,-764.6423"/>
<polygon fill="#c0c0c0" stroke="#c0c0c0" stroke-width="2" points="768.5257,-762.6193 760.1673,-756.1087 762.6413,-766.4106 768.5257,-762.6193"/>
</g>
<!-- 28&#45;&gt;23 -->
<g id="edge36" class="edge">
<title>28&#45;&gt;23</title>
<path fill="none" stroke="#c0c0c0" stroke-width="2" d="M809.5921,-791.7476C814.8887,-783.352 821.0692,-773.5551 826.6921,-764.6423"/>
<polygon fill="#c0c0c0" stroke="#c0c0c0" stroke-width="2" points="829.7002,-766.4338 832.0757,-756.1087 823.7799,-762.6988 829.7002,-766.4338"/>
</g>
<!-- 29 -->
<g id="node30" class="node">
<title>29</title>
<path fill="none" stroke="#88d856" stroke-width="2" d="M1038,-833C1038,-833 905,-833 905,-833 899,-833 893,-827 893,-821 893,-821 893,-804 893,-804 893,-798 899,-792 905,-792 905,-792 1038,-792 1038,-792 1044,-792 1050,-798 1050,-804 1050,-804 1050,-821 1050,-821 1050,-827 1044,-833 1038,-833"/>
<text text-anchor="middle" x="971.5" y="-821" font-family="sans" font-size="10.00" fill="#000000">rejoin_sample</text>
<text text-anchor="middle" x="971.5" y="-810" font-family="sans" font-size="10.00" fill="#000000">direction: R3</text>
<text text-anchor="middle" x="971.5" y="-799" font-family="sans" font-size="10.00" fill="#000000">sample: Keimbahn/KB0428_f</text>
</g>
<!-- 29&#45;&gt;23 -->
<g id="edge35" class="edge">
<title>29&#45;&gt;23</title>
<path fill="none" stroke="#c0c0c0" stroke-width="2" d="M936.1846,-791.9453C919.9512,-782.497 900.6133,-771.2417 883.8115,-761.4626"/>
<polygon fill="#c0c0c0" stroke="#c0c0c0" stroke-width="2" points="885.1773,-758.2078 874.7739,-756.2024 881.656,-764.2577 885.1773,-758.2078"/>
</g>
<!-- 30 -->
<g id="node31" class="node">
<title>30</title>
<path fill="none" stroke="#56d8c1" stroke-width="2" d="M299.5,-905C299.5,-905 225.5,-905 225.5,-905 219.5,-905 213.5,-899 213.5,-893 213.5,-893 213.5,-881 213.5,-881 213.5,-875 219.5,-869 225.5,-869 225.5,-869 299.5,-869 299.5,-869 305.5,-869 311.5,-875 311.5,-881 311.5,-881 311.5,-893 311.5,-893 311.5,-899 305.5,-905 299.5,-905"/>
<text text-anchor="middle" x="262.5" y="-884.5" font-family="sans" font-size="10.00" fill="#000000">join_demultiplex</text>
</g>
<!-- 30&#45;&gt;24 -->
<g id="edge37" class="edge">
<title>30&#45;&gt;24</title>
<path fill="none" stroke="#c0c0c0" stroke-width="2" d="M218.6849,-868.9656C195.3992,-859.3812 166.435,-847.4594 141.1295,-837.0436"/>
<polygon fill="#c0c0c0" stroke="#c0c0c0" stroke-width="2" points="142.209,-833.7031 131.6294,-833.1334 139.5446,-840.1762 142.209,-833.7031"/>
</g>
<!-- 30&#45;&gt;25 -->
<g id="edge38" class="edge">
<title>30&#45;&gt;25</title>
<path fill="none" stroke="#c0c0c0" stroke-width="2" d="M262.5,-868.9656C262.5,-861.3118 262.5,-852.1674 262.5,-843.4898"/>
<polygon fill="#c0c0c0" stroke="#c0c0c0" stroke-width="2" points="266.0001,-843.2678 262.5,-833.2679 259.0001,-843.2679 266.0001,-843.2678"/>
</g>
<!-- 30&#45;&gt;26 -->
<g id="edge39" class="edge">
<title>30&#45;&gt;26</title>
<path fill="none" stroke="#c0c0c0" stroke-width="2" d="M306.3151,-868.9656C329.6008,-859.3812 358.565,-847.4594 383.8705,-837.0436"/>
<polygon fill="#c0c0c0" stroke="#c0c0c0" stroke-width="2" points="385.4554,-840.1762 393.3706,-833.1334 382.791,-833.7031 385.4554,-840.1762"/>
</g>
<!-- 31 -->
<g id="node32" class="node">
<title>31</title>
<path fill="none" stroke="#56d8c1" stroke-width="2" d="M833.5,-905C833.5,-905 759.5,-905 759.5,-905 753.5,-905 747.5,-899 747.5,-893 747.5,-893 747.5,-881 747.5,-881 747.5,-875 753.5,-869 759.5,-869 759.5,-869 833.5,-869 833.5,-869 839.5,-869 845.5,-875 845.5,-881 845.5,-881 845.5,-893 845.5,-893 845.5,-899 839.5,-905 833.5,-905"/>
<text text-anchor="middle" x="796.5" y="-884.5" font-family="sans" font-size="10.00" fill="#000000">join_demultiplex</text>
</g>
<!-- 31&#45;&gt;27 -->
<g id="edge40" class="edge">
<title>31&#45;&gt;27</title>
<path fill="none" stroke="#c0c0c0" stroke-width="2" d="M754.1374,-868.9656C731.7227,-859.4234 703.8661,-847.5644 679.4763,-837.1814"/>
<polygon fill="#c0c0c0" stroke="#c0c0c0" stroke-width="2" points="680.5396,-833.8301 669.9677,-833.1334 677.7977,-840.2708 680.5396,-833.8301"/>
</g>
<!-- 31&#45;&gt;28 -->
<g id="edge41" class="edge">
<title>31&#45;&gt;28</title>
<path fill="none" stroke="#c0c0c0" stroke-width="2" d="M796.5,-868.9656C796.5,-861.3118 796.5,-852.1674 796.5,-843.4898"/>
<polygon fill="#c0c0c0" stroke="#c0c0c0" stroke-width="2" points="800.0001,-843.2678 796.5,-833.2679 793.0001,-843.2679 800.0001,-843.2678"/>
</g>
<!-- 31&#45;&gt;29 -->
<g id="edge42" class="edge">
<title>31&#45;&gt;29</title>
<path fill="none" stroke="#c0c0c0" stroke-width="2" d="M838.8626,-868.9656C861.2773,-859.4234 889.1339,-847.5644 913.5237,-837.1814"/>
<polygon fill="#c0c0c0" stroke="#c0c0c0" stroke-width="2" points="915.2023,-840.2708 923.0323,-833.1334 912.4604,-833.8301 915.2023,-840.2708"/>
</g>
<!-- 32 -->
<g id="node33" class="node">
<title>32</title>
<path fill="none" stroke="#d8cb56" stroke-width="2" d="M149,-977C149,-977 98,-977 98,-977 92,-977 86,-971 86,-965 86,-965 86,-953 86,-953 86,-947 92,-941 98,-941 98,-941 149,-941 149,-941 155,-941 161,-947 161,-953 161,-953 161,-965 161,-965 161,-971 155,-977 149,-977"/>
<text text-anchor="middle" x="123.5" y="-962" font-family="sans" font-size="10.00" fill="#000000">demultiplex</text>
<text text-anchor="middle" x="123.5" y="-951" font-family="sans" font-size="10.00" fill="#000000">part: part_1</text>
</g>
<!-- 32&#45;&gt;30 -->
<g id="edge43" class="edge">
<title>32&#45;&gt;30</title>
<path fill="none" stroke="#c0c0c0" stroke-width="2" d="M158.5756,-940.8314C176.7661,-931.4089 199.1658,-919.8062 218.506,-909.7883"/>
<polygon fill="#c0c0c0" stroke="#c0c0c0" stroke-width="2" points="220.166,-912.8701 227.4357,-905.1628 216.9463,-906.6545 220.166,-912.8701"/>
</g>
<!-- 33 -->
<g id="node34" class="node">
<title>33</title>
<path fill="none" stroke="#d8cb56" stroke-width="2" d="M242,-977C242,-977 191,-977 191,-977 185,-977 179,-971 179,-965 179,-965 179,-953 179,-953 179,-947 185,-941 191,-941 191,-941 242,-941 242,-941 248,-941 254,-947 254,-953 254,-953 254,-965 254,-965 254,-971 248,-977 242,-977"/>
<text text-anchor="middle" x="216.5" y="-962" font-family="sans" font-size="10.00" fill="#000000">demultiplex</text>
<text text-anchor="middle" x="216.5" y="-951" font-family="sans" font-size="10.00" fill="#000000">part: part_2</text>
</g>
<!-- 33&#45;&gt;30 -->
<g id="edge44" class="edge">
<title>33&#45;&gt;30</title>
<path fill="none" stroke="#c0c0c0" stroke-width="2" d="M228.1077,-940.8314C233.2978,-932.7079 239.5232,-922.9637 245.2425,-914.0118"/>
<polygon fill="#c0c0c0" stroke="#c0c0c0" stroke-width="2" points="248.3015,-915.7246 250.736,-905.4133 242.4026,-911.9559 248.3015,-915.7246"/>
</g>
<!-- 34 -->
<g id="node35" class="node">
<title>34</title>
<path fill="none" stroke="#d8cb56" stroke-width="2" d="M335,-977C335,-977 284,-977 284,-977 278,-977 272,-971 272,-965 272,-965 272,-953 272,-953 272,-947 278,-941 284,-941 284,-941 335,-941 335,-941 341,-941 347,-947 347,-953 347,-953 347,-965 347,-965 347,-971 341,-977 335,-977"/>
<text text-anchor="middle" x="309.5" y="-962" font-family="sans" font-size="10.00" fill="#000000">demultiplex</text>
<text text-anchor="middle" x="309.5" y="-951" font-family="sans" font-size="10.00" fill="#000000">part: part_3</text>
</g>
<!-- 34&#45;&gt;30 -->
<g id="edge45" class="edge">
<title>34&#45;&gt;30</title>
<path fill="none" stroke="#c0c0c0" stroke-width="2" d="M297.6399,-940.8314C292.3371,-932.7079 285.9763,-922.9637 280.1327,-914.0118"/>
<polygon fill="#c0c0c0" stroke="#c0c0c0" stroke-width="2" points="282.9169,-911.8739 274.5198,-905.4133 277.0552,-915.7003 282.9169,-911.8739"/>
</g>
<!-- 35 -->
<g id="node36" class="node">
<title>35</title>
<path fill="none" stroke="#d8cb56" stroke-width="2" d="M428,-977C428,-977 377,-977 377,-977 371,-977 365,-971 365,-965 365,-965 365,-953 365,-953 365,-947 371,-941 377,-941 377,-941 428,-941 428,-941 434,-941 440,-947 440,-953 440,-953 440,-965 440,-965 440,-971 434,-977 428,-977"/>
<text text-anchor="middle" x="402.5" y="-962" font-family="sans" font-size="10.00" fill="#000000">demultiplex</text>
<text text-anchor="middle" x="402.5" y="-951" font-family="sans" font-size="10.00" fill="#000000">part: part_4</text>
</g>
<!-- 35&#45;&gt;30 -->
<g id="edge46" class="edge">
<title>35&#45;&gt;30</title>
<path fill="none" stroke="#c0c0c0" stroke-width="2" d="M367.1721,-940.8314C348.8507,-931.4089 326.2898,-919.8062 306.8105,-909.7883"/>
<polygon fill="#c0c0c0" stroke="#c0c0c0" stroke-width="2" points="308.3102,-906.6239 297.8166,-905.1628 305.1088,-912.8489 308.3102,-906.6239"/>
</g>
<!-- 36 -->
<g id="node37" class="node">
<title>36</title>
<path fill="none" stroke="#d8cb56" stroke-width="2" d="M683,-977C683,-977 632,-977 632,-977 626,-977 620,-971 620,-965 620,-965 620,-953 620,-953 620,-947 626,-941 632,-941 632,-941 683,-941 683,-941 689,-941 695,-947 695,-953 695,-953 695,-965 695,-965 695,-971 689,-977 683,-977"/>
<text text-anchor="middle" x="657.5" y="-962" font-family="sans" font-size="10.00" fill="#000000">demultiplex</text>
<text text-anchor="middle" x="657.5" y="-951" font-family="sans" font-size="10.00" fill="#000000">part: part_1</text>
</g>
<!-- 36&#45;&gt;31 -->
<g id="edge47" class="edge">
<title>36&#45;&gt;31</title>
<path fill="none" stroke="#c0c0c0" stroke-width="2" d="M692.5756,-940.8314C710.7661,-931.4089 733.1658,-919.8062 752.506,-909.7883"/>
<polygon fill="#c0c0c0" stroke="#c0c0c0" stroke-width="2" points="754.166,-912.8701 761.4357,-905.1628 750.9463,-906.6545 754.166,-912.8701"/>
</g>
<!-- 37 -->
<g id="node38" class="node">
<title>37</title>
<path fill="none" stroke="#d8cb56" stroke-width="2" d="M776,-977C776,-977 725,-977 725,-977 719,-977 713,-971 713,-965 713,-965 713,-953 713,-953 713,-947 719,-941 725,-941 725,-941 776,-941 776,-941 782,-941 788,-947 788,-953 788,-953 788,-965 788,-965 788,-971 782,-977 776,-977"/>
<text text-anchor="middle" x="750.5" y="-962" font-family="sans" font-size="10.00" fill="#000000">demultiplex</text>
<text text-anchor="middle" x="750.5" y="-951" font-family="sans" font-size="10.00" fill="#000000">part: part_2</text>
</g>
<!-- 37&#45;&gt;31 -->
<g id="edge48" class="edge">
<title>37&#45;&gt;31</title>
<path fill="none" stroke="#c0c0c0" stroke-width="2" d="M762.1077,-940.8314C767.2978,-932.7079 773.5232,-922.9637 779.2425,-914.0118"/>
<polygon fill="#c0c0c0" stroke="#c0c0c0" stroke-width="2" points="782.3015,-915.7246 784.736,-905.4133 776.4026,-911.9559 782.3015,-915.7246"/>
</g>
<!-- 38 -->
<g id="node39" class="node">
<title>38</title>
<path fill="none" stroke="#d8cb56" stroke-width="2" d="M869,-977C869,-977 818,-977 818,-977 812,-977 806,-971 806,-965 806,-965 806,-953 806,-953 806,-947 812,-941 818,-941 818,-941 869,-941 869,-941 875,-941 881,-947 881,-953 881,-953 881,-965 881,-965 881,-971 875,-977 869,-977"/>
<text text-anchor="middle" x="843.5" y="-962" font-family="sans" font-size="10.00" fill="#000000">demultiplex</text>
<text text-anchor="middle" x="843.5" y="-951" font-family="sans" font-size="10.00" fill="#000000">part: part_3</text>
</g>
<!-- 38&#45;&gt;31 -->
<g id="edge49" class="edge">
<title>38&#45;&gt;31</title>
<path fill="none" stroke="#c0c0c0" stroke-width="2" d="M831.6399,-940.8314C826.3371,-932.7079 819.9763,-922.9637 814.1327,-914.0118"/>
<polygon fill="#c0c0c0" stroke="#c0c0c0" stroke-width="2" points="816.9169,-911.8739 808.5198,-905.4133 811.0552,-915.7003 816.9169,-911.8739"/>
</g>
<!-- 39 -->
<g id="node40" class="node">
<title>39</title>
<path fill="none" stroke="#d8cb56" stroke-width="2" d="M962,-977C962,-977 911,-977 911,-977 905,-977 899,-971 899,-965 899,-965 899,-953 899,-953 899,-947 905,-941 911,-941 911,-941 962,-941 962,-941 968,-941 974,-947 974,-953 974,-953 974,-965 974,-965 974,-971 968,-977 962,-977"/>
<text text-anchor="middle" x="936.5" y="-962" font-family="sans" font-size="10.00" fill="#000000">demultiplex</text>
<text text-anchor="middle" x="936.5" y="-951" font-family="sans" font-size="10.00" fill="#000000">part: part_4</text>
</g>
<!-- 39&#45;&gt;31 -->
<g id="edge50" class="edge">
<title>39&#45;&gt;31</title>
<path fill="none" stroke="#c0c0c0" stroke-width="2" d="M901.1721,-940.8314C882.8507,-931.4089 860.2898,-919.8062 840.8105,-909.7883"/>
<polygon fill="#c0c0c0" stroke="#c0c0c0" stroke-width="2" points="842.3102,-906.6239 831.8166,-905.1628 839.1088,-912.8489 842.3102,-906.6239"/>
</g>
<!-- 40 -->
<g id="node41" class="node">
<title>40</title>
<path fill="none" stroke="#56c1d8" stroke-width="2" d="M301,-1049C301,-1049 224,-1049 224,-1049 218,-1049 212,-1043 212,-1037 212,-1037 212,-1025 212,-1025 212,-1019 218,-1013 224,-1013 224,-1013 301,-1013 301,-1013 307,-1013 313,-1019 313,-1025 313,-1025 313,-1037 313,-1037 313,-1043 307,-1049 301,-1049"/>
<text text-anchor="middle" x="262.5" y="-1028.5" font-family="sans" font-size="10.00" fill="#000000">split_demultiplex</text>
</g>
<!-- 40&#45;&gt;32 -->
<g id="edge51" class="edge">
<title>40&#45;&gt;32</title>
<path fill="none" stroke="#c0c0c0" stroke-width="2" d="M227.4244,-1012.8314C209.2339,-1003.4089 186.8342,-991.8062 167.494,-981.7883"/>
<polygon fill="#c0c0c0" stroke="#c0c0c0" stroke-width="2" points="169.0537,-978.6545 158.5643,-977.1628 165.834,-984.8701 169.0537,-978.6545"/>
</g>
<!-- 40&#45;&gt;33 -->
<g id="edge52" class="edge">
<title>40&#45;&gt;33</title>
<path fill="none" stroke="#c0c0c0" stroke-width="2" d="M250.8923,-1012.8314C245.7022,-1004.7079 239.4768,-994.9637 233.7575,-986.0118"/>
<polygon fill="#c0c0c0" stroke="#c0c0c0" stroke-width="2" points="236.5974,-983.9559 228.264,-977.4133 230.6985,-987.7246 236.5974,-983.9559"/>
</g>
<!-- 40&#45;&gt;34 -->
<g id="edge53" class="edge">
<title>40&#45;&gt;34</title>
<path fill="none" stroke="#c0c0c0" stroke-width="2" d="M274.3601,-1012.8314C279.6629,-1004.7079 286.0237,-994.9637 291.8673,-986.0118"/>
<polygon fill="#c0c0c0" stroke="#c0c0c0" stroke-width="2" points="294.9448,-987.7003 297.4802,-977.4133 289.0831,-983.8739 294.9448,-987.7003"/>
</g>
<!-- 40&#45;&gt;35 -->
<g id="edge54" class="edge">
<title>40&#45;&gt;35</title>
<path fill="none" stroke="#c0c0c0" stroke-width="2" d="M297.8279,-1012.8314C316.1493,-1003.4089 338.7102,-991.8062 358.1895,-981.7883"/>
<polygon fill="#c0c0c0" stroke="#c0c0c0" stroke-width="2" points="359.8912,-984.8489 367.1834,-977.1628 356.6898,-978.6239 359.8912,-984.8489"/>
</g>
<!-- 41 -->
<g id="node42" class="node">
<title>41</title>
<path fill="none" stroke="#56c1d8" stroke-width="2" d="M835,-1049C835,-1049 758,-1049 758,-1049 752,-1049 746,-1043 746,-1037 746,-1037 746,-1025 746,-1025 746,-1019 752,-1013 758,-1013 758,-1013 835,-1013 835,-1013 841,-1013 847,-1019 847,-1025 847,-1025 847,-1037 847,-1037 847,-1043 841,-1049 835,-1049"/>
<text text-anchor="middle" x="796.5" y="-1028.5" font-family="sans" font-size="10.00" fill="#000000">split_demultiplex</text>
</g>
<!-- 41&#45;&gt;36 -->
<g id="edge55" class="edge">
<title>41&#45;&gt;36</title>
<path fill="none" stroke="#c0c0c0" stroke-width="2" d="M761.4244,-1012.8314C743.2339,-1003.4089 720.8342,-991.8062 701.494,-981.7883"/>
<polygon fill="#c0c0c0" stroke="#c0c0c0" stroke-width="2" points="703.0537,-978.6545 692.5643,-977.1628 699.834,-984.8701 703.0537,-978.6545"/>
</g>
<!-- 41&#45;&gt;37 -->
<g id="edge56" class="edge">
<title>41&#45;&gt;37</title>
<path fill="none" stroke="#c0c0c0" stroke-width="2" d="M784.8923,-1012.8314C779.7022,-1004.7079 773.4768,-994.9637 767.7575,-986.0118"/>
<polygon fill="#c0c0c0" stroke="#c0c0c0" stroke-width="2" points="770.5974,-983.9559 762.264,-977.4133 764.6985,-987.7246 770.5974,-983.9559"/>
</g>
<!-- 41&#45;&gt;38 -->
<g id="edge57" class="edge">
<title>41&#45;&gt;38</title>
<path fill="none" stroke="#c0c0c0" stroke-width="2" d="M808.3601,-1012.8314C813.6629,-1004.7079 820.0237,-994.9637 825.8673,-986.0118"/>
<polygon fill="#c0c0c0" stroke="#c0c0c0" stroke-width="2" points="828.9448,-987.7003 831.4802,-977.4133 823.0831,-983.8739 828.9448,-987.7003"/>
</g>
<!-- 41&#45;&gt;39 -->
<g id="edge58" class="edge">
<title>41&#45;&gt;39</title>
<path fill="none" stroke="#c0c0c0" stroke-width="2" d="M831.8279,-1012.8314C850.1493,-1003.4089 872.7102,-991.8062 892.1895,-981.7883"/>
<polygon fill="#c0c0c0" stroke="#c0c0c0" stroke-width="2" points="893.8912,-984.8489 901.1834,-977.1628 890.6898,-978.6239 893.8912,-984.8489"/>
</g>
<!-- 42 -->
<g id="node43" class="node">
<title>42</title>
<path fill="none" stroke="#569ad8" stroke-width="2" d="M378.5,-1126C378.5,-1126 146.5,-1126 146.5,-1126 140.5,-1126 134.5,-1120 134.5,-1114 134.5,-1114 134.5,-1097 134.5,-1097 134.5,-1091 140.5,-1085 146.5,-1085 146.5,-1085 378.5,-1085 378.5,-1085 384.5,-1085 390.5,-1091 390.5,-1097 390.5,-1097 390.5,-1114 390.5,-1114 390.5,-1120 384.5,-1126 378.5,-1126"/>
<text text-anchor="middle" x="262.5" y="-1114" font-family="sans" font-size="10.00" fill="#000000">check_complete</text>
<text text-anchor="middle" x="262.5" y="-1103" font-family="sans" font-size="10.00" fill="#000000">prefix: /gpfs/project/projects/spike/AG_Borkhardt/</text>
<text text-anchor="middle" x="262.5" y="-1092" font-family="sans" font-size="10.00" fill="#000000">run: 210520_NB552271_0040_AH3MWGBGXJ</text>
</g>
<!-- 42&#45;&gt;40 -->
<g id="edge59" class="edge">
<title>42&#45;&gt;40</title>
<path fill="none" stroke="#c0c0c0" stroke-width="2" d="M262.5,-1084.7476C262.5,-1076.8767 262.5,-1067.7743 262.5,-1059.3232"/>
<polygon fill="#c0c0c0" stroke="#c0c0c0" stroke-width="2" points="266.0001,-1059.1086 262.5,-1049.1087 259.0001,-1059.1087 266.0001,-1059.1086"/>
</g>
<!-- 43 -->
<g id="node44" class="node">
<title>43</title>
<path fill="none" stroke="#569ad8" stroke-width="2" d="M912.5,-1126C912.5,-1126 680.5,-1126 680.5,-1126 674.5,-1126 668.5,-1120 668.5,-1114 668.5,-1114 668.5,-1097 668.5,-1097 668.5,-1091 674.5,-1085 680.5,-1085 680.5,-1085 912.5,-1085 912.5,-1085 918.5,-1085 924.5,-1091 924.5,-1097 924.5,-1097 924.5,-1114 924.5,-1114 924.5,-1120 918.5,-1126 912.5,-1126"/>
<text text-anchor="middle" x="796.5" y="-1114" font-family="sans" font-size="10.00" fill="#000000">check_complete</text>
<text text-anchor="middle" x="796.5" y="-1103" font-family="sans" font-size="10.00" fill="#000000">prefix: /gpfs/project/projects/spike/AG_Borkhardt/</text>
<text text-anchor="middle" x="796.5" y="-1092" font-family="sans" font-size="10.00" fill="#000000">run: 211125_NB552271_0065_AHV7TJBGXJ</text>
</g>
<!-- 43&#45;&gt;41 -->
<g id="edge60" class="edge">
<title>43&#45;&gt;41</title>
<path fill="none" stroke="#c0c0c0" stroke-width="2" d="M796.5,-1084.7476C796.5,-1076.8767 796.5,-1067.7743 796.5,-1059.3232"/>
<polygon fill="#c0c0c0" stroke="#c0c0c0" stroke-width="2" points="800.0001,-1059.1086 796.5,-1049.1087 793.0001,-1059.1087 800.0001,-1059.1086"/>
</g>
</g>
</svg>
