<?xml version="1.0" encoding="UTF-8" standalone="no"?>
<!DOCTYPE svg PUBLIC "-//W3C//DTD SVG 1.1//EN"
 "http://www.w3.org/Graphics/SVG/1.1/DTD/svg11.dtd">
<!-- Generated by graphviz version 2.40.1 (20161225.0304)
 -->
<!-- Title: snakemake_dag Pages: 1 -->
<svg width="3184pt" height="486pt"
 viewBox="0.00 0.00 3183.50 486.00" xmlns="http://www.w3.org/2000/svg" xmlns:xlink="http://www.w3.org/1999/xlink">
<g id="graph0" class="graph" transform="scale(1 1) rotate(0) translate(4 482)">
<title>snakemake_dag</title>
<polygon fill="#ffffff" stroke="transparent" points="-4,4 -4,-482 3179.5,-482 3179.5,4 -4,4"/>
<!-- 0 -->
<g id="node1" class="node">
<title>0</title>
<path fill="none" stroke="#56d873" stroke-width="2" d="M1601,-36C1601,-36 1571,-36 1571,-36 1565,-36 1559,-30 1559,-24 1559,-24 1559,-12 1559,-12 1559,-6 1565,0 1571,0 1571,0 1601,0 1601,0 1607,0 1613,-6 1613,-12 1613,-12 1613,-24 1613,-24 1613,-30 1607,-36 1601,-36"/>
<text text-anchor="middle" x="1586" y="-15.5" font-family="sans" font-size="10.00" fill="#000000">multiqc</text>
</g>
<!-- 1 -->
<g id="node2" class="node">
<title>1</title>
<path fill="none" stroke="#56d0d8" stroke-width="2" d="M360,-108C360,-108 150,-108 150,-108 144,-108 138,-102 138,-96 138,-96 138,-84 138,-84 138,-78 144,-72 150,-72 150,-72 360,-72 360,-72 366,-72 372,-78 372,-84 372,-84 372,-96 372,-96 372,-102 366,-108 360,-108"/>
<text text-anchor="middle" x="255" y="-93" font-family="sans" font-size="10.00" fill="#000000">fastqc</text>
<text text-anchor="middle" x="255" y="-82" font-family="sans" font-size="10.00" fill="#000000">run: 220307_NB552271_0071_AH5NNCBGXK</text>
</g>
<!-- 1&#45;&gt;0 -->
<g id="edge1" class="edge">
<title>1&#45;&gt;0</title>
<path fill="none" stroke="#c0c0c0" stroke-width="2" d="M372.2492,-79.9747C407.2208,-77.17 445.6485,-74.2711 481,-72 899.4485,-45.1179 1407.8046,-24.8141 1548.4128,-19.4186"/>
<polygon fill="#c0c0c0" stroke="#c0c0c0" stroke-width="2" points="1548.7864,-22.9069 1558.6453,-19.0274 1548.5189,-15.9121 1548.7864,-22.9069"/>
</g>
<!-- 2 -->
<g id="node3" class="node">
<title>2</title>
<path fill="none" stroke="#56d0d8" stroke-width="2" d="M712,-108C712,-108 502,-108 502,-108 496,-108 490,-102 490,-96 490,-96 490,-84 490,-84 490,-78 496,-72 502,-72 502,-72 712,-72 712,-72 718,-72 724,-78 724,-84 724,-84 724,-96 724,-96 724,-102 718,-108 712,-108"/>
<text text-anchor="middle" x="607" y="-93" font-family="sans" font-size="10.00" fill="#000000">fastqc</text>
<text text-anchor="middle" x="607" y="-82" font-family="sans" font-size="10.00" fill="#000000">run: 220307_NB552271_0071_AH5NNCBGXK</text>
</g>
<!-- 2&#45;&gt;0 -->
<g id="edge2" class="edge">
<title>2&#45;&gt;0</title>
<path fill="none" stroke="#c0c0c0" stroke-width="2" d="M724.2347,-80.88C761.5549,-78.0041 803.0093,-74.838 841,-72 1112.5793,-51.7123 1439.9368,-28.3705 1548.7974,-20.6382"/>
<polygon fill="#c0c0c0" stroke="#c0c0c0" stroke-width="2" points="1549.2085,-24.1179 1558.9355,-19.9184 1548.7127,-17.1355 1549.2085,-24.1179"/>
</g>
<!-- 3 -->
<g id="node4" class="node">
<title>3</title>
<path fill="none" stroke="#56d0d8" stroke-width="2" d="M1072,-108C1072,-108 862,-108 862,-108 856,-108 850,-102 850,-96 850,-96 850,-84 850,-84 850,-78 856,-72 862,-72 862,-72 1072,-72 1072,-72 1078,-72 1084,-78 1084,-84 1084,-84 1084,-96 1084,-96 1084,-102 1078,-108 1072,-108"/>
<text text-anchor="middle" x="967" y="-93" font-family="sans" font-size="10.00" fill="#000000">fastqc</text>
<text text-anchor="middle" x="967" y="-82" font-family="sans" font-size="10.00" fill="#000000">run: 220307_NB552271_0071_AH5NNCBGXK</text>
</g>
<!-- 3&#45;&gt;0 -->
<g id="edge3" class="edge">
<title>3&#45;&gt;0</title>
<path fill="none" stroke="#c0c0c0" stroke-width="2" d="M1084.1569,-76.3727C1226.602,-59.804 1459.1049,-32.76 1548.946,-22.31"/>
<polygon fill="#c0c0c0" stroke="#c0c0c0" stroke-width="2" points="1549.4035,-25.7805 1558.9321,-21.1484 1548.5947,-18.8273 1549.4035,-25.7805"/>
</g>
<!-- 4 -->
<g id="node5" class="node">
<title>4</title>
<path fill="none" stroke="#56d0d8" stroke-width="2" d="M1427,-108C1427,-108 1217,-108 1217,-108 1211,-108 1205,-102 1205,-96 1205,-96 1205,-84 1205,-84 1205,-78 1211,-72 1217,-72 1217,-72 1427,-72 1427,-72 1433,-72 1439,-78 1439,-84 1439,-84 1439,-96 1439,-96 1439,-102 1433,-108 1427,-108"/>
<text text-anchor="middle" x="1322" y="-93" font-family="sans" font-size="10.00" fill="#000000">fastqc</text>
<text text-anchor="middle" x="1322" y="-82" font-family="sans" font-size="10.00" fill="#000000">run: 220307_NB552271_0071_AH5NNCBGXK</text>
</g>
<!-- 4&#45;&gt;0 -->
<g id="edge4" class="edge">
<title>4&#45;&gt;0</title>
<path fill="none" stroke="#c0c0c0" stroke-width="2" d="M1388.2776,-71.9243C1439.216,-58.032 1507.6853,-39.3585 1549.2349,-28.0268"/>
<polygon fill="#c0c0c0" stroke="#c0c0c0" stroke-width="2" points="1550.2118,-31.3883 1558.9385,-25.3804 1548.37,-24.635 1550.2118,-31.3883"/>
</g>
<!-- 5 -->
<g id="node6" class="node">
<title>5</title>
<path fill="none" stroke="#56d0d8" stroke-width="2" d="M1691,-108C1691,-108 1481,-108 1481,-108 1475,-108 1469,-102 1469,-96 1469,-96 1469,-84 1469,-84 1469,-78 1475,-72 1481,-72 1481,-72 1691,-72 1691,-72 1697,-72 1703,-78 1703,-84 1703,-84 1703,-96 1703,-96 1703,-102 1697,-108 1691,-108"/>
<text text-anchor="middle" x="1586" y="-93" font-family="sans" font-size="10.00" fill="#000000">fastqc</text>
<text text-anchor="middle" x="1586" y="-82" font-family="sans" font-size="10.00" fill="#000000">run: 220307_NB552271_0071_AH5NNCBGXK</text>
</g>
<!-- 5&#45;&gt;0 -->
<g id="edge5" class="edge">
<title>5&#45;&gt;0</title>
<path fill="none" stroke="#c0c0c0" stroke-width="2" d="M1586,-71.8314C1586,-64.131 1586,-54.9743 1586,-46.4166"/>
<polygon fill="#c0c0c0" stroke="#c0c0c0" stroke-width="2" points="1589.5001,-46.4132 1586,-36.4133 1582.5001,-46.4133 1589.5001,-46.4132"/>
</g>
<!-- 6 -->
<g id="node7" class="node">
<title>6</title>
<path fill="none" stroke="#56d0d8" stroke-width="2" d="M1956,-108C1956,-108 1746,-108 1746,-108 1740,-108 1734,-102 1734,-96 1734,-96 1734,-84 1734,-84 1734,-78 1740,-72 1746,-72 1746,-72 1956,-72 1956,-72 1962,-72 1968,-78 1968,-84 1968,-84 1968,-96 1968,-96 1968,-102 1962,-108 1956,-108"/>
<text text-anchor="middle" x="1851" y="-93" font-family="sans" font-size="10.00" fill="#000000">fastqc</text>
<text text-anchor="middle" x="1851" y="-82" font-family="sans" font-size="10.00" fill="#000000">run: 220307_NB552271_0071_AH5NNCBGXK</text>
</g>
<!-- 6&#45;&gt;0 -->
<g id="edge6" class="edge">
<title>6&#45;&gt;0</title>
<path fill="none" stroke="#c0c0c0" stroke-width="2" d="M1784.4714,-71.9243C1733.34,-58.032 1664.6113,-39.3585 1622.9044,-28.0268"/>
<polygon fill="#c0c0c0" stroke="#c0c0c0" stroke-width="2" points="1623.7318,-24.6248 1613.164,-25.3804 1621.8964,-31.38 1623.7318,-24.6248"/>
</g>
<!-- 7 -->
<g id="node8" class="node">
<title>7</title>
<path fill="none" stroke="#56d0d8" stroke-width="2" d="M2315,-108C2315,-108 2105,-108 2105,-108 2099,-108 2093,-102 2093,-96 2093,-96 2093,-84 2093,-84 2093,-78 2099,-72 2105,-72 2105,-72 2315,-72 2315,-72 2321,-72 2327,-78 2327,-84 2327,-84 2327,-96 2327,-96 2327,-102 2321,-108 2315,-108"/>
<text text-anchor="middle" x="2210" y="-93" font-family="sans" font-size="10.00" fill="#000000">fastqc</text>
<text text-anchor="middle" x="2210" y="-82" font-family="sans" font-size="10.00" fill="#000000">run: 220307_NB552271_0071_AH5NNCBGXK</text>
</g>
<!-- 7&#45;&gt;0 -->
<g id="edge7" class="edge">
<title>7&#45;&gt;0</title>
<path fill="none" stroke="#c0c0c0" stroke-width="2" d="M2092.9966,-76.4996C1949.4064,-59.9315 1713.8425,-32.7511 1623.1746,-22.2894"/>
<polygon fill="#c0c0c0" stroke="#c0c0c0" stroke-width="2" points="1623.4363,-18.7964 1613.101,-21.127 1622.6339,-25.7503 1623.4363,-18.7964"/>
</g>
<!-- 8 -->
<g id="node9" class="node">
<title>8</title>
<path fill="none" stroke="#56d0d8" stroke-width="2" d="M2668,-108C2668,-108 2458,-108 2458,-108 2452,-108 2446,-102 2446,-96 2446,-96 2446,-84 2446,-84 2446,-78 2452,-72 2458,-72 2458,-72 2668,-72 2668,-72 2674,-72 2680,-78 2680,-84 2680,-84 2680,-96 2680,-96 2680,-102 2674,-108 2668,-108"/>
<text text-anchor="middle" x="2563" y="-93" font-family="sans" font-size="10.00" fill="#000000">fastqc</text>
<text text-anchor="middle" x="2563" y="-82" font-family="sans" font-size="10.00" fill="#000000">run: 220307_NB552271_0071_AH5NNCBGXK</text>
</g>
<!-- 8&#45;&gt;0 -->
<g id="edge8" class="edge">
<title>8&#45;&gt;0</title>
<path fill="none" stroke="#c0c0c0" stroke-width="2" d="M2445.7804,-80.5418C2410.4967,-77.7389 2371.6758,-74.6988 2336,-72 2062.6268,-51.3203 1733.0538,-28.2297 1623.455,-20.6002"/>
<polygon fill="#c0c0c0" stroke="#c0c0c0" stroke-width="2" points="1623.467,-17.0927 1613.2482,-19.8902 1622.9811,-24.0758 1623.467,-17.0927"/>
</g>
<!-- 9 -->
<g id="node10" class="node">
<title>9</title>
<path fill="none" stroke="#56d0d8" stroke-width="2" d="M3027,-108C3027,-108 2817,-108 2817,-108 2811,-108 2805,-102 2805,-96 2805,-96 2805,-84 2805,-84 2805,-78 2811,-72 2817,-72 2817,-72 3027,-72 3027,-72 3033,-72 3039,-78 3039,-84 3039,-84 3039,-96 3039,-96 3039,-102 3033,-108 3027,-108"/>
<text text-anchor="middle" x="2922" y="-93" font-family="sans" font-size="10.00" fill="#000000">fastqc</text>
<text text-anchor="middle" x="2922" y="-82" font-family="sans" font-size="10.00" fill="#000000">run: 220307_NB552271_0071_AH5NNCBGXK</text>
</g>
<!-- 9&#45;&gt;0 -->
<g id="edge9" class="edge">
<title>9&#45;&gt;0</title>
<path fill="none" stroke="#c0c0c0" stroke-width="2" d="M2804.7074,-80.2902C2767.7036,-77.4011 2726.657,-74.3759 2689,-72 2271.2766,-45.6447 1763.8634,-24.9692 1623.5171,-19.4528"/>
<polygon fill="#c0c0c0" stroke="#c0c0c0" stroke-width="2" points="1623.433,-15.9469 1613.3036,-19.0527 1623.1589,-22.9416 1623.433,-15.9469"/>
</g>
<!-- 10 -->
<g id="node11" class="node">
<title>10</title>
<path fill="none" stroke="#56d0d8" stroke-width="2" d="M146,-185C146,-185 12,-185 12,-185 6,-185 0,-179 0,-173 0,-173 0,-156 0,-156 0,-150 6,-144 12,-144 12,-144 146,-144 146,-144 152,-144 158,-150 158,-156 158,-156 158,-173 158,-173 158,-179 152,-185 146,-185"/>
<text text-anchor="middle" x="79" y="-173" font-family="sans" font-size="10.00" fill="#000000">rejoin_sample</text>
<text text-anchor="middle" x="79" y="-162" font-family="sans" font-size="10.00" fill="#000000">direction: R1</text>
<text text-anchor="middle" x="79" y="-151" font-family="sans" font-size="10.00" fill="#000000">sample: Keimbahn/KB0357_c</text>
</g>
<!-- 10&#45;&gt;1 -->
<g id="edge10" class="edge">
<title>10&#45;&gt;1</title>
<path fill="none" stroke="#c0c0c0" stroke-width="2" d="M127.5587,-143.9453C151.0028,-134.0215 179.156,-122.1044 203.0317,-111.9979"/>
<polygon fill="#c0c0c0" stroke="#c0c0c0" stroke-width="2" points="204.4481,-115.1991 212.2927,-108.0778 201.7193,-108.7529 204.4481,-115.1991"/>
</g>
<!-- 11 -->
<g id="node12" class="node">
<title>11</title>
<path fill="none" stroke="#56d0d8" stroke-width="2" d="M322,-185C322,-185 188,-185 188,-185 182,-185 176,-179 176,-173 176,-173 176,-156 176,-156 176,-150 182,-144 188,-144 188,-144 322,-144 322,-144 328,-144 334,-150 334,-156 334,-156 334,-173 334,-173 334,-179 328,-185 322,-185"/>
<text text-anchor="middle" x="255" y="-173" font-family="sans" font-size="10.00" fill="#000000">rejoin_sample</text>
<text text-anchor="middle" x="255" y="-162" font-family="sans" font-size="10.00" fill="#000000">direction: R3</text>
<text text-anchor="middle" x="255" y="-151" font-family="sans" font-size="10.00" fill="#000000">sample: Keimbahn/KB0357_c</text>
</g>
<!-- 11&#45;&gt;1 -->
<g id="edge11" class="edge">
<title>11&#45;&gt;1</title>
<path fill="none" stroke="#c0c0c0" stroke-width="2" d="M255,-143.7476C255,-135.8767 255,-126.7743 255,-118.3232"/>
<polygon fill="#c0c0c0" stroke="#c0c0c0" stroke-width="2" points="258.5001,-118.1086 255,-108.1087 251.5001,-118.1087 258.5001,-118.1086"/>
</g>
<!-- 12 -->
<g id="node13" class="node">
<title>12</title>
<path fill="none" stroke="#56d0d8" stroke-width="2" d="M498,-185C498,-185 364,-185 364,-185 358,-185 352,-179 352,-173 352,-173 352,-156 352,-156 352,-150 358,-144 364,-144 364,-144 498,-144 498,-144 504,-144 510,-150 510,-156 510,-156 510,-173 510,-173 510,-179 504,-185 498,-185"/>
<text text-anchor="middle" x="431" y="-173" font-family="sans" font-size="10.00" fill="#000000">rejoin_sample</text>
<text text-anchor="middle" x="431" y="-162" font-family="sans" font-size="10.00" fill="#000000">direction: R1</text>
<text text-anchor="middle" x="431" y="-151" font-family="sans" font-size="10.00" fill="#000000">sample: Keimbahn/KB0410_c</text>
</g>
<!-- 12&#45;&gt;2 -->
<g id="edge12" class="edge">
<title>12&#45;&gt;2</title>
<path fill="none" stroke="#c0c0c0" stroke-width="2" d="M479.5587,-143.9453C503.0028,-134.0215 531.156,-122.1044 555.0317,-111.9979"/>
<polygon fill="#c0c0c0" stroke="#c0c0c0" stroke-width="2" points="556.4481,-115.1991 564.2927,-108.0778 553.7193,-108.7529 556.4481,-115.1991"/>
</g>
<!-- 13 -->
<g id="node14" class="node">
<title>13</title>
<path fill="none" stroke="#56d0d8" stroke-width="2" d="M674,-185C674,-185 540,-185 540,-185 534,-185 528,-179 528,-173 528,-173 528,-156 528,-156 528,-150 534,-144 540,-144 540,-144 674,-144 674,-144 680,-144 686,-150 686,-156 686,-156 686,-173 686,-173 686,-179 680,-185 674,-185"/>
<text text-anchor="middle" x="607" y="-173" font-family="sans" font-size="10.00" fill="#000000">rejoin_sample</text>
<text text-anchor="middle" x="607" y="-162" font-family="sans" font-size="10.00" fill="#000000">direction: R3</text>
<text text-anchor="middle" x="607" y="-151" font-family="sans" font-size="10.00" fill="#000000">sample: Keimbahn/KB0410_c</text>
</g>
<!-- 13&#45;&gt;2 -->
<g id="edge13" class="edge">
<title>13&#45;&gt;2</title>
<path fill="none" stroke="#c0c0c0" stroke-width="2" d="M607,-143.7476C607,-135.8767 607,-126.7743 607,-118.3232"/>
<polygon fill="#c0c0c0" stroke="#c0c0c0" stroke-width="2" points="610.5001,-118.1086 607,-108.1087 603.5001,-118.1087 610.5001,-118.1086"/>
</g>
<!-- 14 -->
<g id="node15" class="node">
<title>14</title>
<path fill="none" stroke="#56d0d8" stroke-width="2" d="M855.5,-185C855.5,-185 716.5,-185 716.5,-185 710.5,-185 704.5,-179 704.5,-173 704.5,-173 704.5,-156 704.5,-156 704.5,-150 710.5,-144 716.5,-144 716.5,-144 855.5,-144 855.5,-144 861.5,-144 867.5,-150 867.5,-156 867.5,-156 867.5,-173 867.5,-173 867.5,-179 861.5,-185 855.5,-185"/>
<text text-anchor="middle" x="786" y="-173" font-family="sans" font-size="10.00" fill="#000000">rejoin_sample</text>
<text text-anchor="middle" x="786" y="-162" font-family="sans" font-size="10.00" fill="#000000">direction: R1</text>
<text text-anchor="middle" x="786" y="-151" font-family="sans" font-size="10.00" fill="#000000">sample: Keimbahn/KB0357_m</text>
</g>
<!-- 14&#45;&gt;3 -->
<g id="edge14" class="edge">
<title>14&#45;&gt;3</title>
<path fill="none" stroke="#c0c0c0" stroke-width="2" d="M835.9382,-143.9453C860.0484,-134.0215 889.0013,-122.1044 913.5554,-111.9979"/>
<polygon fill="#c0c0c0" stroke="#c0c0c0" stroke-width="2" points="915.1643,-115.1207 923.0794,-108.0778 912.4999,-108.6475 915.1643,-115.1207"/>
</g>
<!-- 15 -->
<g id="node16" class="node">
<title>15</title>
<path fill="none" stroke="#56d0d8" stroke-width="2" d="M1036.5,-185C1036.5,-185 897.5,-185 897.5,-185 891.5,-185 885.5,-179 885.5,-173 885.5,-173 885.5,-156 885.5,-156 885.5,-150 891.5,-144 897.5,-144 897.5,-144 1036.5,-144 1036.5,-144 1042.5,-144 1048.5,-150 1048.5,-156 1048.5,-156 1048.5,-173 1048.5,-173 1048.5,-179 1042.5,-185 1036.5,-185"/>
<text text-anchor="middle" x="967" y="-173" font-family="sans" font-size="10.00" fill="#000000">rejoin_sample</text>
<text text-anchor="middle" x="967" y="-162" font-family="sans" font-size="10.00" fill="#000000">direction: R3</text>
<text text-anchor="middle" x="967" y="-151" font-family="sans" font-size="10.00" fill="#000000">sample: Keimbahn/KB0357_m</text>
</g>
<!-- 15&#45;&gt;3 -->
<g id="edge15" class="edge">
<title>15&#45;&gt;3</title>
<path fill="none" stroke="#c0c0c0" stroke-width="2" d="M967,-143.7476C967,-135.8767 967,-126.7743 967,-118.3232"/>
<polygon fill="#c0c0c0" stroke="#c0c0c0" stroke-width="2" points="970.5001,-118.1086 967,-108.1087 963.5001,-118.1087 970.5001,-118.1086"/>
</g>
<!-- 16 -->
<g id="node17" class="node">
<title>16</title>
<path fill="none" stroke="#56d0d8" stroke-width="2" d="M1213,-185C1213,-185 1079,-185 1079,-185 1073,-185 1067,-179 1067,-173 1067,-173 1067,-156 1067,-156 1067,-150 1073,-144 1079,-144 1079,-144 1213,-144 1213,-144 1219,-144 1225,-150 1225,-156 1225,-156 1225,-173 1225,-173 1225,-179 1219,-185 1213,-185"/>
<text text-anchor="middle" x="1146" y="-173" font-family="sans" font-size="10.00" fill="#000000">rejoin_sample</text>
<text text-anchor="middle" x="1146" y="-162" font-family="sans" font-size="10.00" fill="#000000">direction: R1</text>
<text text-anchor="middle" x="1146" y="-151" font-family="sans" font-size="10.00" fill="#000000">sample: Keimbahn/KB0358_c</text>
</g>
<!-- 16&#45;&gt;4 -->
<g id="edge16" class="edge">
<title>16&#45;&gt;4</title>
<path fill="none" stroke="#c0c0c0" stroke-width="2" d="M1194.5587,-143.9453C1218.0028,-134.0215 1246.156,-122.1044 1270.0317,-111.9979"/>
<polygon fill="#c0c0c0" stroke="#c0c0c0" stroke-width="2" points="1271.4481,-115.1991 1279.2927,-108.0778 1268.7193,-108.7529 1271.4481,-115.1991"/>
</g>
<!-- 17 -->
<g id="node18" class="node">
<title>17</title>
<path fill="none" stroke="#56d0d8" stroke-width="2" d="M1389,-185C1389,-185 1255,-185 1255,-185 1249,-185 1243,-179 1243,-173 1243,-173 1243,-156 1243,-156 1243,-150 1249,-144 1255,-144 1255,-144 1389,-144 1389,-144 1395,-144 1401,-150 1401,-156 1401,-156 1401,-173 1401,-173 1401,-179 1395,-185 1389,-185"/>
<text text-anchor="middle" x="1322" y="-173" font-family="sans" font-size="10.00" fill="#000000">rejoin_sample</text>
<text text-anchor="middle" x="1322" y="-162" font-family="sans" font-size="10.00" fill="#000000">direction: R3</text>
<text text-anchor="middle" x="1322" y="-151" font-family="sans" font-size="10.00" fill="#000000">sample: Keimbahn/KB0358_c</text>
</g>
<!-- 17&#45;&gt;4 -->
<g id="edge17" class="edge">
<title>17&#45;&gt;4</title>
<path fill="none" stroke="#c0c0c0" stroke-width="2" d="M1322,-143.7476C1322,-135.8767 1322,-126.7743 1322,-118.3232"/>
<polygon fill="#c0c0c0" stroke="#c0c0c0" stroke-width="2" points="1325.5001,-118.1086 1322,-108.1087 1318.5001,-118.1087 1325.5001,-118.1086"/>
</g>
<!-- 18 -->
<g id="node19" class="node">
<title>18</title>
<path fill="none" stroke="#56d0d8" stroke-width="2" d="M1564.5,-185C1564.5,-185 1431.5,-185 1431.5,-185 1425.5,-185 1419.5,-179 1419.5,-173 1419.5,-173 1419.5,-156 1419.5,-156 1419.5,-150 1425.5,-144 1431.5,-144 1431.5,-144 1564.5,-144 1564.5,-144 1570.5,-144 1576.5,-150 1576.5,-156 1576.5,-156 1576.5,-173 1576.5,-173 1576.5,-179 1570.5,-185 1564.5,-185"/>
<text text-anchor="middle" x="1498" y="-173" font-family="sans" font-size="10.00" fill="#000000">rejoin_sample</text>
<text text-anchor="middle" x="1498" y="-162" font-family="sans" font-size="10.00" fill="#000000">direction: R1</text>
<text text-anchor="middle" x="1498" y="-151" font-family="sans" font-size="10.00" fill="#000000">sample: Keimbahn/KB0410_f</text>
</g>
<!-- 18&#45;&gt;5 -->
<g id="edge18" class="edge">
<title>18&#45;&gt;5</title>
<path fill="none" stroke="#c0c0c0" stroke-width="2" d="M1522.5129,-143.7476C1533.153,-134.7398 1545.6984,-124.119 1556.8152,-114.7076"/>
<polygon fill="#c0c0c0" stroke="#c0c0c0" stroke-width="2" points="1559.2391,-117.2414 1564.6099,-108.1087 1554.7162,-111.8988 1559.2391,-117.2414"/>
</g>
<!-- 19 -->
<g id="node20" class="node">
<title>19</title>
<path fill="none" stroke="#56d0d8" stroke-width="2" d="M1739.5,-185C1739.5,-185 1606.5,-185 1606.5,-185 1600.5,-185 1594.5,-179 1594.5,-173 1594.5,-173 1594.5,-156 1594.5,-156 1594.5,-150 1600.5,-144 1606.5,-144 1606.5,-144 1739.5,-144 1739.5,-144 1745.5,-144 1751.5,-150 1751.5,-156 1751.5,-156 1751.5,-173 1751.5,-173 1751.5,-179 1745.5,-185 1739.5,-185"/>
<text text-anchor="middle" x="1673" y="-173" font-family="sans" font-size="10.00" fill="#000000">rejoin_sample</text>
<text text-anchor="middle" x="1673" y="-162" font-family="sans" font-size="10.00" fill="#000000">direction: R3</text>
<text text-anchor="middle" x="1673" y="-151" font-family="sans" font-size="10.00" fill="#000000">sample: Keimbahn/KB0410_f</text>
</g>
<!-- 19&#45;&gt;5 -->
<g id="edge19" class="edge">
<title>19&#45;&gt;5</title>
<path fill="none" stroke="#c0c0c0" stroke-width="2" d="M1648.7656,-143.7476C1638.2464,-134.7398 1625.8436,-124.119 1614.8531,-114.7076"/>
<polygon fill="#c0c0c0" stroke="#c0c0c0" stroke-width="2" points="1617.0192,-111.9545 1607.147,-108.1087 1612.4662,-117.2715 1617.0192,-111.9545"/>
</g>
<!-- 20 -->
<g id="node21" class="node">
<title>20</title>
<path fill="none" stroke="#56d0d8" stroke-width="2" d="M1920.5,-185C1920.5,-185 1781.5,-185 1781.5,-185 1775.5,-185 1769.5,-179 1769.5,-173 1769.5,-173 1769.5,-156 1769.5,-156 1769.5,-150 1775.5,-144 1781.5,-144 1781.5,-144 1920.5,-144 1920.5,-144 1926.5,-144 1932.5,-150 1932.5,-156 1932.5,-156 1932.5,-173 1932.5,-173 1932.5,-179 1926.5,-185 1920.5,-185"/>
<text text-anchor="middle" x="1851" y="-173" font-family="sans" font-size="10.00" fill="#000000">rejoin_sample</text>
<text text-anchor="middle" x="1851" y="-162" font-family="sans" font-size="10.00" fill="#000000">direction: R1</text>
<text text-anchor="middle" x="1851" y="-151" font-family="sans" font-size="10.00" fill="#000000">sample: Keimbahn/KB0410_m</text>
</g>
<!-- 20&#45;&gt;6 -->
<g id="edge20" class="edge">
<title>20&#45;&gt;6</title>
<path fill="none" stroke="#c0c0c0" stroke-width="2" d="M1851,-143.7476C1851,-135.8767 1851,-126.7743 1851,-118.3232"/>
<polygon fill="#c0c0c0" stroke="#c0c0c0" stroke-width="2" points="1854.5001,-118.1086 1851,-108.1087 1847.5001,-118.1087 1854.5001,-118.1086"/>
</g>
<!-- 21 -->
<g id="node22" class="node">
<title>21</title>
<path fill="none" stroke="#56d0d8" stroke-width="2" d="M2101.5,-185C2101.5,-185 1962.5,-185 1962.5,-185 1956.5,-185 1950.5,-179 1950.5,-173 1950.5,-173 1950.5,-156 1950.5,-156 1950.5,-150 1956.5,-144 1962.5,-144 1962.5,-144 2101.5,-144 2101.5,-144 2107.5,-144 2113.5,-150 2113.5,-156 2113.5,-156 2113.5,-173 2113.5,-173 2113.5,-179 2107.5,-185 2101.5,-185"/>
<text text-anchor="middle" x="2032" y="-173" font-family="sans" font-size="10.00" fill="#000000">rejoin_sample</text>
<text text-anchor="middle" x="2032" y="-162" font-family="sans" font-size="10.00" fill="#000000">direction: R3</text>
<text text-anchor="middle" x="2032" y="-151" font-family="sans" font-size="10.00" fill="#000000">sample: Keimbahn/KB0410_m</text>
</g>
<!-- 21&#45;&gt;6 -->
<g id="edge21" class="edge">
<title>21&#45;&gt;6</title>
<path fill="none" stroke="#c0c0c0" stroke-width="2" d="M1982.0618,-143.9453C1957.9516,-134.0215 1928.9987,-122.1044 1904.4446,-111.9979"/>
<polygon fill="#c0c0c0" stroke="#c0c0c0" stroke-width="2" points="1905.5001,-108.6475 1894.9206,-108.0778 1902.8357,-115.1207 1905.5001,-108.6475"/>
</g>
<!-- 22 -->
<g id="node23" class="node">
<title>22</title>
<path fill="none" stroke="#56d0d8" stroke-width="2" d="M2276.5,-185C2276.5,-185 2143.5,-185 2143.5,-185 2137.5,-185 2131.5,-179 2131.5,-173 2131.5,-173 2131.5,-156 2131.5,-156 2131.5,-150 2137.5,-144 2143.5,-144 2143.5,-144 2276.5,-144 2276.5,-144 2282.5,-144 2288.5,-150 2288.5,-156 2288.5,-156 2288.5,-173 2288.5,-173 2288.5,-179 2282.5,-185 2276.5,-185"/>
<text text-anchor="middle" x="2210" y="-173" font-family="sans" font-size="10.00" fill="#000000">rejoin_sample</text>
<text text-anchor="middle" x="2210" y="-162" font-family="sans" font-size="10.00" fill="#000000">direction: R1</text>
<text text-anchor="middle" x="2210" y="-151" font-family="sans" font-size="10.00" fill="#000000">sample: Keimbahn/KB0358_f</text>
</g>
<!-- 22&#45;&gt;7 -->
<g id="edge22" class="edge">
<title>22&#45;&gt;7</title>
<path fill="none" stroke="#c0c0c0" stroke-width="2" d="M2210,-143.7476C2210,-135.8767 2210,-126.7743 2210,-118.3232"/>
<polygon fill="#c0c0c0" stroke="#c0c0c0" stroke-width="2" points="2213.5001,-118.1086 2210,-108.1087 2206.5001,-118.1087 2213.5001,-118.1086"/>
</g>
<!-- 23 -->
<g id="node24" class="node">
<title>23</title>
<path fill="none" stroke="#56d0d8" stroke-width="2" d="M2451.5,-185C2451.5,-185 2318.5,-185 2318.5,-185 2312.5,-185 2306.5,-179 2306.5,-173 2306.5,-173 2306.5,-156 2306.5,-156 2306.5,-150 2312.5,-144 2318.5,-144 2318.5,-144 2451.5,-144 2451.5,-144 2457.5,-144 2463.5,-150 2463.5,-156 2463.5,-156 2463.5,-173 2463.5,-173 2463.5,-179 2457.5,-185 2451.5,-185"/>
<text text-anchor="middle" x="2385" y="-173" font-family="sans" font-size="10.00" fill="#000000">rejoin_sample</text>
<text text-anchor="middle" x="2385" y="-162" font-family="sans" font-size="10.00" fill="#000000">direction: R3</text>
<text text-anchor="middle" x="2385" y="-151" font-family="sans" font-size="10.00" fill="#000000">sample: Keimbahn/KB0358_f</text>
</g>
<!-- 23&#45;&gt;7 -->
<g id="edge23" class="edge">
<title>23&#45;&gt;7</title>
<path fill="none" stroke="#c0c0c0" stroke-width="2" d="M2336.7172,-143.9453C2313.4063,-134.0215 2285.4131,-122.1044 2261.673,-111.9979"/>
<polygon fill="#c0c0c0" stroke="#c0c0c0" stroke-width="2" points="2263.0366,-108.7745 2252.4647,-108.0778 2260.2947,-115.2152 2263.0366,-108.7745"/>
</g>
<!-- 24 -->
<g id="node25" class="node">
<title>24</title>
<path fill="none" stroke="#56d0d8" stroke-width="2" d="M2632.5,-185C2632.5,-185 2493.5,-185 2493.5,-185 2487.5,-185 2481.5,-179 2481.5,-173 2481.5,-173 2481.5,-156 2481.5,-156 2481.5,-150 2487.5,-144 2493.5,-144 2493.5,-144 2632.5,-144 2632.5,-144 2638.5,-144 2644.5,-150 2644.5,-156 2644.5,-156 2644.5,-173 2644.5,-173 2644.5,-179 2638.5,-185 2632.5,-185"/>
<text text-anchor="middle" x="2563" y="-173" font-family="sans" font-size="10.00" fill="#000000">rejoin_sample</text>
<text text-anchor="middle" x="2563" y="-162" font-family="sans" font-size="10.00" fill="#000000">direction: R1</text>
<text text-anchor="middle" x="2563" y="-151" font-family="sans" font-size="10.00" fill="#000000">sample: Keimbahn/KB0358_m</text>
</g>
<!-- 24&#45;&gt;8 -->
<g id="edge24" class="edge">
<title>24&#45;&gt;8</title>
<path fill="none" stroke="#c0c0c0" stroke-width="2" d="M2563,-143.7476C2563,-135.8767 2563,-126.7743 2563,-118.3232"/>
<polygon fill="#c0c0c0" stroke="#c0c0c0" stroke-width="2" points="2566.5001,-118.1086 2563,-108.1087 2559.5001,-118.1087 2566.5001,-118.1086"/>
</g>
<!-- 25 -->
<g id="node26" class="node">
<title>25</title>
<path fill="none" stroke="#56d0d8" stroke-width="2" d="M2813.5,-185C2813.5,-185 2674.5,-185 2674.5,-185 2668.5,-185 2662.5,-179 2662.5,-173 2662.5,-173 2662.5,-156 2662.5,-156 2662.5,-150 2668.5,-144 2674.5,-144 2674.5,-144 2813.5,-144 2813.5,-144 2819.5,-144 2825.5,-150 2825.5,-156 2825.5,-156 2825.5,-173 2825.5,-173 2825.5,-179 2819.5,-185 2813.5,-185"/>
<text text-anchor="middle" x="2744" y="-173" font-family="sans" font-size="10.00" fill="#000000">rejoin_sample</text>
<text text-anchor="middle" x="2744" y="-162" font-family="sans" font-size="10.00" fill="#000000">direction: R3</text>
<text text-anchor="middle" x="2744" y="-151" font-family="sans" font-size="10.00" fill="#000000">sample: Keimbahn/KB0358_m</text>
</g>
<!-- 25&#45;&gt;8 -->
<g id="edge25" class="edge">
<title>25&#45;&gt;8</title>
<path fill="none" stroke="#c0c0c0" stroke-width="2" d="M2694.0618,-143.9453C2669.9516,-134.0215 2640.9987,-122.1044 2616.4446,-111.9979"/>
<polygon fill="#c0c0c0" stroke="#c0c0c0" stroke-width="2" points="2617.5001,-108.6475 2606.9206,-108.0778 2614.8357,-115.1207 2617.5001,-108.6475"/>
</g>
<!-- 26 -->
<g id="node27" class="node">
<title>26</title>
<path fill="none" stroke="#56d0d8" stroke-width="2" d="M2988.5,-185C2988.5,-185 2855.5,-185 2855.5,-185 2849.5,-185 2843.5,-179 2843.5,-173 2843.5,-173 2843.5,-156 2843.5,-156 2843.5,-150 2849.5,-144 2855.5,-144 2855.5,-144 2988.5,-144 2988.5,-144 2994.5,-144 3000.5,-150 3000.5,-156 3000.5,-156 3000.5,-173 3000.5,-173 3000.5,-179 2994.5,-185 2988.5,-185"/>
<text text-anchor="middle" x="2922" y="-173" font-family="sans" font-size="10.00" fill="#000000">rejoin_sample</text>
<text text-anchor="middle" x="2922" y="-162" font-family="sans" font-size="10.00" fill="#000000">direction: R1</text>
<text text-anchor="middle" x="2922" y="-151" font-family="sans" font-size="10.00" fill="#000000">sample: Keimbahn/KB0357_f</text>
</g>
<!-- 26&#45;&gt;9 -->
<g id="edge26" class="edge">
<title>26&#45;&gt;9</title>
<path fill="none" stroke="#c0c0c0" stroke-width="2" d="M2922,-143.7476C2922,-135.8767 2922,-126.7743 2922,-118.3232"/>
<polygon fill="#c0c0c0" stroke="#c0c0c0" stroke-width="2" points="2925.5001,-118.1086 2922,-108.1087 2918.5001,-118.1087 2925.5001,-118.1086"/>
</g>
<!-- 27 -->
<g id="node28" class="node">
<title>27</title>
<path fill="none" stroke="#56d0d8" stroke-width="2" d="M3163.5,-185C3163.5,-185 3030.5,-185 3030.5,-185 3024.5,-185 3018.5,-179 3018.5,-173 3018.5,-173 3018.5,-156 3018.5,-156 3018.5,-150 3024.5,-144 3030.5,-144 3030.5,-144 3163.5,-144 3163.5,-144 3169.5,-144 3175.5,-150 3175.5,-156 3175.5,-156 3175.5,-173 3175.5,-173 3175.5,-179 3169.5,-185 3163.5,-185"/>
<text text-anchor="middle" x="3097" y="-173" font-family="sans" font-size="10.00" fill="#000000">rejoin_sample</text>
<text text-anchor="middle" x="3097" y="-162" font-family="sans" font-size="10.00" fill="#000000">direction: R3</text>
<text text-anchor="middle" x="3097" y="-151" font-family="sans" font-size="10.00" fill="#000000">sample: Keimbahn/KB0357_f</text>
</g>
<!-- 27&#45;&gt;9 -->
<g id="edge27" class="edge">
<title>27&#45;&gt;9</title>
<path fill="none" stroke="#c0c0c0" stroke-width="2" d="M3048.7172,-143.9453C3025.4063,-134.0215 2997.4131,-122.1044 2973.673,-111.9979"/>
<polygon fill="#c0c0c0" stroke="#c0c0c0" stroke-width="2" points="2975.0366,-108.7745 2964.4647,-108.0778 2972.2947,-115.2152 2975.0366,-108.7745"/>
</g>
<!-- 28 -->
<g id="node29" class="node">
<title>28</title>
<path fill="none" stroke="#d8bc56" stroke-width="2" d="M1622,-257C1622,-257 1548,-257 1548,-257 1542,-257 1536,-251 1536,-245 1536,-245 1536,-233 1536,-233 1536,-227 1542,-221 1548,-221 1548,-221 1622,-221 1622,-221 1628,-221 1634,-227 1634,-233 1634,-233 1634,-245 1634,-245 1634,-251 1628,-257 1622,-257"/>
<text text-anchor="middle" x="1585" y="-236.5" font-family="sans" font-size="10.00" fill="#000000">join_demultiplex</text>
</g>
<!-- 28&#45;&gt;10 -->
<g id="edge28" class="edge">
<title>28&#45;&gt;10</title>
<path fill="none" stroke="#c0c0c0" stroke-width="2" d="M1535.7994,-238.3863C1320.6281,-235.5109 460.4993,-221.9785 168.1796,-184.9841"/>
<polygon fill="#c0c0c0" stroke="#c0c0c0" stroke-width="2" points="168.3913,-181.4821 158.0224,-183.6582 167.4852,-188.4233 168.3913,-181.4821"/>
</g>
<!-- 28&#45;&gt;11 -->
<g id="edge29" class="edge">
<title>28&#45;&gt;11</title>
<path fill="none" stroke="#c0c0c0" stroke-width="2" d="M1535.9735,-238.0833C1338.4142,-234.2043 599.5236,-217.8668 344.0049,-184.9653"/>
<polygon fill="#c0c0c0" stroke="#c0c0c0" stroke-width="2" points="344.3994,-181.487 334.0252,-183.6377 343.4763,-188.4259 344.3994,-181.487"/>
</g>
<!-- 28&#45;&gt;12 -->
<g id="edge30" class="edge">
<title>28&#45;&gt;12</title>
<path fill="none" stroke="#c0c0c0" stroke-width="2" d="M1535.9848,-237.6786C1357.1406,-232.6791 739.2019,-213.8014 520.1549,-184.99"/>
<polygon fill="#c0c0c0" stroke="#c0c0c0" stroke-width="2" points="520.4099,-181.4925 510.0289,-183.6106 519.4649,-188.4284 520.4099,-181.4925"/>
</g>
<!-- 28&#45;&gt;13 -->
<g id="edge31" class="edge">
<title>28&#45;&gt;13</title>
<path fill="none" stroke="#c0c0c0" stroke-width="2" d="M1535.9348,-237.113C1377.2956,-230.844 878.4595,-209.7753 696.037,-184.9827"/>
<polygon fill="#c0c0c0" stroke="#c0c0c0" stroke-width="2" points="696.425,-181.5029 686.0344,-183.5727 695.4479,-188.4344 696.425,-181.5029"/>
</g>
<!-- 28&#45;&gt;14 -->
<g id="edge32" class="edge">
<title>28&#45;&gt;14</title>
<path fill="none" stroke="#c0c0c0" stroke-width="2" d="M1535.7226,-237.7536C1421.5026,-234.3268 1129.779,-222.4866 877.8922,-185.1851"/>
<polygon fill="#c0c0c0" stroke="#c0c0c0" stroke-width="2" points="878.2267,-181.6962 867.8186,-183.6764 877.1899,-188.619 878.2267,-181.6962"/>
</g>
<!-- 28&#45;&gt;15 -->
<g id="edge33" class="edge">
<title>28&#45;&gt;15</title>
<path fill="none" stroke="#c0c0c0" stroke-width="2" d="M1535.6992,-235.9223C1443.8126,-229.7578 1240.0419,-214.0722 1058.7457,-185.0203"/>
<polygon fill="#c0c0c0" stroke="#c0c0c0" stroke-width="2" points="1059.1935,-181.5473 1048.7625,-183.4032 1058.0741,-188.4572 1059.1935,-181.5473"/>
</g>
<!-- 28&#45;&gt;16 -->
<g id="edge34" class="edge">
<title>28&#45;&gt;16</title>
<path fill="none" stroke="#c0c0c0" stroke-width="2" d="M1535.964,-232.6579C1469.8508,-223.8417 1348.2823,-206.6978 1234.9776,-185.1226"/>
<polygon fill="#c0c0c0" stroke="#c0c0c0" stroke-width="2" points="1235.5738,-181.6732 1225.0932,-183.2249 1234.254,-188.5477 1235.5738,-181.6732"/>
</g>
<!-- 28&#45;&gt;17 -->
<g id="edge35" class="edge">
<title>28&#45;&gt;17</title>
<path fill="none" stroke="#c0c0c0" stroke-width="2" d="M1535.8402,-225.0745C1498.866,-214.6008 1447.3592,-200.0105 1404.1609,-187.7737"/>
<polygon fill="#c0c0c0" stroke="#c0c0c0" stroke-width="2" points="1405.0874,-184.3985 1394.5121,-185.0405 1403.1796,-191.1335 1405.0874,-184.3985"/>
</g>
<!-- 28&#45;&gt;18 -->
<g id="edge36" class="edge">
<title>28&#45;&gt;18</title>
<path fill="none" stroke="#c0c0c0" stroke-width="2" d="M1563.9397,-220.9656C1553.7248,-212.2184 1541.2365,-201.5244 1529.8864,-191.805"/>
<polygon fill="#c0c0c0" stroke="#c0c0c0" stroke-width="2" points="1532.1246,-189.1137 1522.2524,-185.2679 1527.5716,-194.4307 1532.1246,-189.1137"/>
</g>
<!-- 28&#45;&gt;19 -->
<g id="edge37" class="edge">
<title>28&#45;&gt;19</title>
<path fill="none" stroke="#c0c0c0" stroke-width="2" d="M1606.3023,-220.9656C1616.6347,-212.2184 1629.2665,-201.5244 1640.7471,-191.805"/>
<polygon fill="#c0c0c0" stroke="#c0c0c0" stroke-width="2" points="1643.0981,-194.4006 1648.4688,-185.2679 1638.5751,-189.058 1643.0981,-194.4006"/>
</g>
<!-- 28&#45;&gt;20 -->
<g id="edge38" class="edge">
<title>28&#45;&gt;20</title>
<path fill="none" stroke="#c0c0c0" stroke-width="2" d="M1634.0985,-225.2487C1671.5007,-214.7733 1723.8655,-200.1072 1767.773,-187.8098"/>
<polygon fill="#c0c0c0" stroke="#c0c0c0" stroke-width="2" points="1768.8944,-191.1305 1777.5799,-185.0632 1767.0065,-184.3899 1768.8944,-191.1305"/>
</g>
<!-- 28&#45;&gt;21 -->
<g id="edge39" class="edge">
<title>28&#45;&gt;21</title>
<path fill="none" stroke="#c0c0c0" stroke-width="2" d="M1634.1334,-232.6714C1701.0292,-223.8069 1824.6982,-206.5396 1940.1336,-185.0997"/>
<polygon fill="#c0c0c0" stroke="#c0c0c0" stroke-width="2" points="1941.0191,-188.4948 1950.2044,-183.2145 1939.7311,-181.6143 1941.0191,-188.4948"/>
</g>
<!-- 28&#45;&gt;22 -->
<g id="edge40" class="edge">
<title>28&#45;&gt;22</title>
<path fill="none" stroke="#c0c0c0" stroke-width="2" d="M1634.1464,-236.1806C1727.311,-230.376 1936.0945,-215.1697 2121.4899,-184.9694"/>
<polygon fill="#c0c0c0" stroke="#c0c0c0" stroke-width="2" points="2122.1202,-188.4129 2131.4183,-183.3339 2120.9823,-181.506 2122.1202,-188.4129"/>
</g>
<!-- 28&#45;&gt;23 -->
<g id="edge41" class="edge">
<title>28&#45;&gt;23</title>
<path fill="none" stroke="#c0c0c0" stroke-width="2" d="M1634.0666,-237.8641C1748.4894,-234.661 2041.9205,-223.2462 2296.2614,-184.9789"/>
<polygon fill="#c0c0c0" stroke="#c0c0c0" stroke-width="2" points="2297.0742,-188.3956 2306.4337,-183.4308 2296.0209,-181.4753 2297.0742,-188.3956"/>
</g>
<!-- 28&#45;&gt;24 -->
<g id="edge42" class="edge">
<title>28&#45;&gt;24</title>
<path fill="none" stroke="#c0c0c0" stroke-width="2" d="M1634.1747,-237.05C1792.5683,-230.6081 2289.1891,-209.1158 2471.2765,-184.9387"/>
<polygon fill="#c0c0c0" stroke="#c0c0c0" stroke-width="2" points="2471.8327,-188.3952 2481.2622,-183.5647 2470.8784,-181.4606 2471.8327,-188.3952"/>
</g>
<!-- 28&#45;&gt;25 -->
<g id="edge43" class="edge">
<title>28&#45;&gt;25</title>
<path fill="none" stroke="#c0c0c0" stroke-width="2" d="M1634.1006,-237.6342C1813.2573,-232.4795 2432.2852,-213.1269 2652.1053,-184.9532"/>
<polygon fill="#c0c0c0" stroke="#c0c0c0" stroke-width="2" points="2652.815,-188.3898 2662.2678,-183.605 2651.8943,-181.4506 2652.815,-188.3898"/>
</g>
<!-- 28&#45;&gt;26 -->
<g id="edge44" class="edge">
<title>28&#45;&gt;26</title>
<path fill="none" stroke="#c0c0c0" stroke-width="2" d="M1634.3027,-238.0918C1832.9751,-234.2454 2576.0292,-218.0173 2833.3997,-184.8959"/>
<polygon fill="#c0c0c0" stroke="#c0c0c0" stroke-width="2" points="2834.0009,-188.3469 2843.4524,-183.5594 2833.0783,-181.4079 2834.0009,-188.3469"/>
</g>
<!-- 28&#45;&gt;27 -->
<g id="edge45" class="edge">
<title>28&#45;&gt;27</title>
<path fill="none" stroke="#c0c0c0" stroke-width="2" d="M1634.0427,-238.3975C1849.5115,-235.5595 2714.085,-222.1295 3008.2341,-184.9143"/>
<polygon fill="#c0c0c0" stroke="#c0c0c0" stroke-width="2" points="3008.9923,-188.3451 3018.4553,-183.5804 3008.0864,-181.404 3008.9923,-188.3451"/>
</g>
<!-- 29 -->
<g id="node30" class="node">
<title>29</title>
<path fill="none" stroke="#56d8d8" stroke-width="2" d="M1471.5,-329C1471.5,-329 1420.5,-329 1420.5,-329 1414.5,-329 1408.5,-323 1408.5,-317 1408.5,-317 1408.5,-305 1408.5,-305 1408.5,-299 1414.5,-293 1420.5,-293 1420.5,-293 1471.5,-293 1471.5,-293 1477.5,-293 1483.5,-299 1483.5,-305 1483.5,-305 1483.5,-317 1483.5,-317 1483.5,-323 1477.5,-329 1471.5,-329"/>
<text text-anchor="middle" x="1446" y="-314" font-family="sans" font-size="10.00" fill="#000000">demultiplex</text>
<text text-anchor="middle" x="1446" y="-303" font-family="sans" font-size="10.00" fill="#000000">part: part_1</text>
</g>
<!-- 29&#45;&gt;28 -->
<g id="edge46" class="edge">
<title>29&#45;&gt;28</title>
<path fill="none" stroke="#c0c0c0" stroke-width="2" d="M1481.0756,-292.8314C1499.2661,-283.4089 1521.6658,-271.8062 1541.006,-261.7883"/>
<polygon fill="#c0c0c0" stroke="#c0c0c0" stroke-width="2" points="1542.666,-264.8701 1549.9357,-257.1628 1539.4463,-258.6545 1542.666,-264.8701"/>
</g>
<!-- 30 -->
<g id="node31" class="node">
<title>30</title>
<path fill="none" stroke="#56d8d8" stroke-width="2" d="M1564.5,-329C1564.5,-329 1513.5,-329 1513.5,-329 1507.5,-329 1501.5,-323 1501.5,-317 1501.5,-317 1501.5,-305 1501.5,-305 1501.5,-299 1507.5,-293 1513.5,-293 1513.5,-293 1564.5,-293 1564.5,-293 1570.5,-293 1576.5,-299 1576.5,-305 1576.5,-305 1576.5,-317 1576.5,-317 1576.5,-323 1570.5,-329 1564.5,-329"/>
<text text-anchor="middle" x="1539" y="-314" font-family="sans" font-size="10.00" fill="#000000">demultiplex</text>
<text text-anchor="middle" x="1539" y="-303" font-family="sans" font-size="10.00" fill="#000000">part: part_2</text>
</g>
<!-- 30&#45;&gt;28 -->
<g id="edge47" class="edge">
<title>30&#45;&gt;28</title>
<path fill="none" stroke="#c0c0c0" stroke-width="2" d="M1550.6077,-292.8314C1555.7978,-284.7079 1562.0232,-274.9637 1567.7425,-266.0118"/>
<polygon fill="#c0c0c0" stroke="#c0c0c0" stroke-width="2" points="1570.8015,-267.7246 1573.236,-257.4133 1564.9026,-263.9559 1570.8015,-267.7246"/>
</g>
<!-- 31 -->
<g id="node32" class="node">
<title>31</title>
<path fill="none" stroke="#56d8d8" stroke-width="2" d="M1657.5,-329C1657.5,-329 1606.5,-329 1606.5,-329 1600.5,-329 1594.5,-323 1594.5,-317 1594.5,-317 1594.5,-305 1594.5,-305 1594.5,-299 1600.5,-293 1606.5,-293 1606.5,-293 1657.5,-293 1657.5,-293 1663.5,-293 1669.5,-299 1669.5,-305 1669.5,-305 1669.5,-317 1669.5,-317 1669.5,-323 1663.5,-329 1657.5,-329"/>
<text text-anchor="middle" x="1632" y="-314" font-family="sans" font-size="10.00" fill="#000000">demultiplex</text>
<text text-anchor="middle" x="1632" y="-303" font-family="sans" font-size="10.00" fill="#000000">part: part_3</text>
</g>
<!-- 31&#45;&gt;28 -->
<g id="edge48" class="edge">
<title>31&#45;&gt;28</title>
<path fill="none" stroke="#c0c0c0" stroke-width="2" d="M1620.1399,-292.8314C1614.8371,-284.7079 1608.4763,-274.9637 1602.6327,-266.0118"/>
<polygon fill="#c0c0c0" stroke="#c0c0c0" stroke-width="2" points="1605.4169,-263.8739 1597.0198,-257.4133 1599.5552,-267.7003 1605.4169,-263.8739"/>
</g>
<!-- 32 -->
<g id="node33" class="node">
<title>32</title>
<path fill="none" stroke="#56d8d8" stroke-width="2" d="M1750.5,-329C1750.5,-329 1699.5,-329 1699.5,-329 1693.5,-329 1687.5,-323 1687.5,-317 1687.5,-317 1687.5,-305 1687.5,-305 1687.5,-299 1693.5,-293 1699.5,-293 1699.5,-293 1750.5,-293 1750.5,-293 1756.5,-293 1762.5,-299 1762.5,-305 1762.5,-305 1762.5,-317 1762.5,-317 1762.5,-323 1756.5,-329 1750.5,-329"/>
<text text-anchor="middle" x="1725" y="-314" font-family="sans" font-size="10.00" fill="#000000">demultiplex</text>
<text text-anchor="middle" x="1725" y="-303" font-family="sans" font-size="10.00" fill="#000000">part: part_4</text>
</g>
<!-- 32&#45;&gt;28 -->
<g id="edge49" class="edge">
<title>32&#45;&gt;28</title>
<path fill="none" stroke="#c0c0c0" stroke-width="2" d="M1689.6721,-292.8314C1671.3507,-283.4089 1648.7898,-271.8062 1629.3105,-261.7883"/>
<polygon fill="#c0c0c0" stroke="#c0c0c0" stroke-width="2" points="1630.8102,-258.6239 1620.3166,-257.1628 1627.6088,-264.8489 1630.8102,-258.6239"/>
</g>
<!-- 33 -->
<g id="node34" class="node">
<title>33</title>
<path fill="none" stroke="#56b1d8" stroke-width="2" d="M1623.5,-401C1623.5,-401 1546.5,-401 1546.5,-401 1540.5,-401 1534.5,-395 1534.5,-389 1534.5,-389 1534.5,-377 1534.5,-377 1534.5,-371 1540.5,-365 1546.5,-365 1546.5,-365 1623.5,-365 1623.5,-365 1629.5,-365 1635.5,-371 1635.5,-377 1635.5,-377 1635.5,-389 1635.5,-389 1635.5,-395 1629.5,-401 1623.5,-401"/>
<text text-anchor="middle" x="1585" y="-380.5" font-family="sans" font-size="10.00" fill="#000000">split_demultiplex</text>
</g>
<!-- 33&#45;&gt;29 -->
<g id="edge50" class="edge">
<title>33&#45;&gt;29</title>
<path fill="none" stroke="#c0c0c0" stroke-width="2" d="M1549.9244,-364.8314C1531.7339,-355.4089 1509.3342,-343.8062 1489.994,-333.7883"/>
<polygon fill="#c0c0c0" stroke="#c0c0c0" stroke-width="2" points="1491.5537,-330.6545 1481.0643,-329.1628 1488.334,-336.8701 1491.5537,-330.6545"/>
</g>
<!-- 33&#45;&gt;30 -->
<g id="edge51" class="edge">
<title>33&#45;&gt;30</title>
<path fill="none" stroke="#c0c0c0" stroke-width="2" d="M1573.3923,-364.8314C1568.2022,-356.7079 1561.9768,-346.9637 1556.2575,-338.0118"/>
<polygon fill="#c0c0c0" stroke="#c0c0c0" stroke-width="2" points="1559.0974,-335.9559 1550.764,-329.4133 1553.1985,-339.7246 1559.0974,-335.9559"/>
</g>
<!-- 33&#45;&gt;31 -->
<g id="edge52" class="edge">
<title>33&#45;&gt;31</title>
<path fill="none" stroke="#c0c0c0" stroke-width="2" d="M1596.8601,-364.8314C1602.1629,-356.7079 1608.5237,-346.9637 1614.3673,-338.0118"/>
<polygon fill="#c0c0c0" stroke="#c0c0c0" stroke-width="2" points="1617.4448,-339.7003 1619.9802,-329.4133 1611.5831,-335.8739 1617.4448,-339.7003"/>
</g>
<!-- 33&#45;&gt;32 -->
<g id="edge53" class="edge">
<title>33&#45;&gt;32</title>
<path fill="none" stroke="#c0c0c0" stroke-width="2" d="M1620.3279,-364.8314C1638.6493,-355.4089 1661.2102,-343.8062 1680.6895,-333.7883"/>
<polygon fill="#c0c0c0" stroke="#c0c0c0" stroke-width="2" points="1682.3912,-336.8489 1689.6834,-329.1628 1679.1898,-330.6239 1682.3912,-336.8489"/>
</g>
<!-- 34 -->
<g id="node35" class="node">
<title>34</title>
<path fill="none" stroke="#56d85b" stroke-width="2" d="M1701,-478C1701,-478 1469,-478 1469,-478 1463,-478 1457,-472 1457,-466 1457,-466 1457,-449 1457,-449 1457,-443 1463,-437 1469,-437 1469,-437 1701,-437 1701,-437 1707,-437 1713,-443 1713,-449 1713,-449 1713,-466 1713,-466 1713,-472 1707,-478 1701,-478"/>
<text text-anchor="middle" x="1585" y="-466" font-family="sans" font-size="10.00" fill="#000000">check_complete</text>
<text text-anchor="middle" x="1585" y="-455" font-family="sans" font-size="10.00" fill="#000000">prefix: /gpfs/project/projects/spike/AG_Borkhardt/</text>
<text text-anchor="middle" x="1585" y="-444" font-family="sans" font-size="10.00" fill="#000000">run: 210205_NB552271_0029_AHLT7LBGXH</text>
</g>
<!-- 34&#45;&gt;33 -->
<g id="edge54" class="edge">
<title>34&#45;&gt;33</title>
<path fill="none" stroke="#c0c0c0" stroke-width="2" d="M1585,-436.7476C1585,-428.8767 1585,-419.7743 1585,-411.3232"/>
<polygon fill="#c0c0c0" stroke="#c0c0c0" stroke-width="2" points="1588.5001,-411.1086 1585,-401.1087 1581.5001,-411.1087 1588.5001,-411.1086"/>
</g>
</g>
</svg>
