<?xml version="1.0" encoding="UTF-8" standalone="no"?>
<!DOCTYPE svg PUBLIC "-//W3C//DTD SVG 1.1//EN"
 "http://www.w3.org/Graphics/SVG/1.1/DTD/svg11.dtd">
<!-- Generated by graphviz version 2.40.1 (20161225.0304)
 -->
<!-- Title: snakemake_dag Pages: 1 -->
<svg width="518pt" height="1134pt"
 viewBox="0.00 0.00 518.00 1134.00" xmlns="http://www.w3.org/2000/svg" xmlns:xlink="http://www.w3.org/1999/xlink">
<g id="graph0" class="graph" transform="scale(1 1) rotate(0) translate(4 1130)">
<title>snakemake_dag</title>
<polygon fill="#ffffff" stroke="transparent" points="-4,4 -4,-1130 514,-1130 514,4 -4,4"/>
<!-- 0 -->
<g id="node1" class="node">
<title>0</title>
<path fill="none" stroke="#56d863" stroke-width="2" d="M282,-36C282,-36 244,-36 244,-36 238,-36 232,-30 232,-24 232,-24 232,-12 232,-12 232,-6 238,0 244,0 244,0 282,0 282,0 288,0 294,-6 294,-12 294,-12 294,-24 294,-24 294,-30 288,-36 282,-36"/>
<text text-anchor="middle" x="263" y="-15.5" font-family="sans" font-size="10.00" fill="#000000">qualimap</text>
</g>
<!-- 1 -->
<g id="node2" class="node">
<title>1</title>
<path fill="none" stroke="#56d873" stroke-width="2" d="M303,-108C303,-108 223,-108 223,-108 217,-108 211,-102 211,-96 211,-96 211,-84 211,-84 211,-78 217,-72 223,-72 223,-72 303,-72 303,-72 309,-72 315,-78 315,-84 315,-84 315,-96 315,-96 315,-102 309,-108 303,-108"/>
<text text-anchor="middle" x="263" y="-87.5" font-family="sans" font-size="10.00" fill="#000000">gatk4_ApplyBQSR</text>
</g>
<!-- 1&#45;&gt;0 -->
<g id="edge1" class="edge">
<title>1&#45;&gt;0</title>
<path fill="none" stroke="#c0c0c0" stroke-width="2" d="M263,-71.8314C263,-64.131 263,-54.9743 263,-46.4166"/>
<polygon fill="#c0c0c0" stroke="#c0c0c0" stroke-width="2" points="266.5001,-46.4132 263,-36.4133 259.5001,-46.4133 266.5001,-46.4132"/>
</g>
<!-- 2 -->
<g id="node3" class="node">
<title>2</title>
<path fill="none" stroke="#56c1d8" stroke-width="2" d="M364,-180C364,-180 256,-180 256,-180 250,-180 244,-174 244,-168 244,-168 244,-156 244,-156 244,-150 250,-144 256,-144 256,-144 364,-144 364,-144 370,-144 376,-150 376,-156 376,-156 376,-168 376,-168 376,-174 370,-180 364,-180"/>
<text text-anchor="middle" x="310" y="-159.5" font-family="sans" font-size="10.00" fill="#000000">gatk4_BaseRecalibrator</text>
</g>
<!-- 2&#45;&gt;1 -->
<g id="edge2" class="edge">
<title>2&#45;&gt;1</title>
<path fill="none" stroke="#c0c0c0" stroke-width="2" d="M298.1399,-143.8314C292.8371,-135.7079 286.4763,-125.9637 280.6327,-117.0118"/>
<polygon fill="#c0c0c0" stroke="#c0c0c0" stroke-width="2" points="283.4169,-114.8739 275.0198,-108.4133 277.5552,-118.7003 283.4169,-114.8739"/>
</g>
<!-- 3 -->
<g id="node4" class="node">
<title>3</title>
<path fill="none" stroke="#56d88a" stroke-width="2" d="M271.5,-324C271.5,-324 236.5,-324 236.5,-324 230.5,-324 224.5,-318 224.5,-312 224.5,-312 224.5,-300 224.5,-300 224.5,-294 230.5,-288 236.5,-288 236.5,-288 271.5,-288 271.5,-288 277.5,-288 283.5,-294 283.5,-300 283.5,-300 283.5,-312 283.5,-312 283.5,-318 277.5,-324 271.5,-324"/>
<text text-anchor="middle" x="254" y="-303.5" font-family="sans" font-size="10.00" fill="#000000">intersect</text>
</g>
<!-- 3&#45;&gt;1 -->
<g id="edge3" class="edge">
<title>3&#45;&gt;1</title>
<path fill="none" stroke="#c0c0c0" stroke-width="2" d="M247.7163,-287.7647C238.2061,-257.5032 222.5221,-195.1717 235,-144 237.2539,-134.7566 241.3893,-125.3312 245.8027,-116.9966"/>
<polygon fill="#c0c0c0" stroke="#c0c0c0" stroke-width="2" points="248.9471,-118.5463 250.8183,-108.118 242.8524,-115.1033 248.9471,-118.5463"/>
</g>
<!-- 3&#45;&gt;2 -->
<g id="edge4" class="edge">
<title>3&#45;&gt;2</title>
<path fill="none" stroke="#c0c0c0" stroke-width="2" d="M255.7283,-287.782C257.9771,-269.1402 262.884,-239.637 273,-216 277.0487,-206.5397 282.8622,-197.016 288.6855,-188.6574"/>
<polygon fill="#c0c0c0" stroke="#c0c0c0" stroke-width="2" points="291.6267,-190.5641 294.6841,-180.4199 285.9681,-186.4434 291.6267,-190.5641"/>
</g>
<!-- 4 -->
<g id="node5" class="node">
<title>4</title>
<path fill="none" stroke="#56b1d8" stroke-width="2" d="M364,-252C364,-252 294,-252 294,-252 288,-252 282,-246 282,-240 282,-240 282,-228 282,-228 282,-222 288,-216 294,-216 294,-216 364,-216 364,-216 370,-216 376,-222 376,-228 376,-228 376,-240 376,-240 376,-246 370,-252 364,-252"/>
<text text-anchor="middle" x="329" y="-231.5" font-family="sans" font-size="10.00" fill="#000000">samtools_index</text>
</g>
<!-- 3&#45;&gt;4 -->
<g id="edge7" class="edge">
<title>3&#45;&gt;4</title>
<path fill="none" stroke="#c0c0c0" stroke-width="2" d="M272.9257,-287.8314C281.9857,-279.1337 292.9809,-268.5783 302.8265,-259.1265"/>
<polygon fill="#c0c0c0" stroke="#c0c0c0" stroke-width="2" points="305.2904,-261.613 310.0804,-252.1628 300.4426,-256.5633 305.2904,-261.613"/>
</g>
<!-- 4&#45;&gt;2 -->
<g id="edge5" class="edge">
<title>4&#45;&gt;2</title>
<path fill="none" stroke="#c0c0c0" stroke-width="2" d="M324.2055,-215.8314C322.1511,-208.0463 319.704,-198.7729 317.4244,-190.1347"/>
<polygon fill="#c0c0c0" stroke="#c0c0c0" stroke-width="2" points="320.7948,-189.1892 314.8591,-180.4133 314.0265,-190.9753 320.7948,-189.1892"/>
</g>
<!-- 5 -->
<g id="node6" class="node">
<title>5</title>
<path fill="none" stroke="#566bd8" stroke-width="2" d="M310.5,-396C310.5,-396 197.5,-396 197.5,-396 191.5,-396 185.5,-390 185.5,-384 185.5,-384 185.5,-372 185.5,-372 185.5,-366 191.5,-360 197.5,-360 197.5,-360 310.5,-360 310.5,-360 316.5,-360 322.5,-366 322.5,-372 322.5,-372 322.5,-384 322.5,-384 322.5,-390 316.5,-396 310.5,-396"/>
<text text-anchor="middle" x="254" y="-375.5" font-family="sans" font-size="10.00" fill="#000000">MBC_remove_duplicates</text>
</g>
<!-- 5&#45;&gt;3 -->
<g id="edge6" class="edge">
<title>5&#45;&gt;3</title>
<path fill="none" stroke="#c0c0c0" stroke-width="2" d="M254,-359.8314C254,-352.131 254,-342.9743 254,-334.4166"/>
<polygon fill="#c0c0c0" stroke="#c0c0c0" stroke-width="2" points="257.5001,-334.4132 254,-324.4133 250.5001,-334.4133 257.5001,-334.4132"/>
</g>
<!-- 6 -->
<g id="node7" class="node">
<title>6</title>
<path fill="none" stroke="#59d856" stroke-width="2" d="M282.5,-540C282.5,-540 225.5,-540 225.5,-540 219.5,-540 213.5,-534 213.5,-528 213.5,-528 213.5,-516 213.5,-516 213.5,-510 219.5,-504 225.5,-504 225.5,-504 282.5,-504 282.5,-504 288.5,-504 294.5,-510 294.5,-516 294.5,-516 294.5,-528 294.5,-528 294.5,-534 288.5,-540 282.5,-540"/>
<text text-anchor="middle" x="254" y="-519.5" font-family="sans" font-size="10.00" fill="#000000">sam_cleanup</text>
</g>
<!-- 6&#45;&gt;5 -->
<g id="edge8" class="edge">
<title>6&#45;&gt;5</title>
<path fill="none" stroke="#c0c0c0" stroke-width="2" d="M243.5441,-503.6605C238.3542,-493.5026 232.6409,-480.4443 230,-468 226.6785,-452.3486 226.6785,-447.6514 230,-432 231.8981,-423.0557 235.3835,-413.7941 239.1209,-405.5203"/>
<polygon fill="#c0c0c0" stroke="#c0c0c0" stroke-width="2" points="242.3568,-406.8676 243.5441,-396.3395 236.0505,-403.8294 242.3568,-406.8676"/>
</g>
<!-- 7 -->
<g id="node8" class="node">
<title>7</title>
<path fill="none" stroke="#80d856" stroke-width="2" d="M345,-468C345,-468 251,-468 251,-468 245,-468 239,-462 239,-456 239,-456 239,-444 239,-444 239,-438 245,-432 251,-432 251,-432 345,-432 345,-432 351,-432 357,-438 357,-444 357,-444 357,-456 357,-456 357,-462 351,-468 345,-468"/>
<text text-anchor="middle" x="298" y="-447.5" font-family="sans" font-size="10.00" fill="#000000">samtools_index_sort</text>
</g>
<!-- 6&#45;&gt;7 -->
<g id="edge11" class="edge">
<title>6&#45;&gt;7</title>
<path fill="none" stroke="#c0c0c0" stroke-width="2" d="M265.1031,-503.8314C270.0674,-495.7079 276.0222,-485.9637 281.4928,-477.0118"/>
<polygon fill="#c0c0c0" stroke="#c0c0c0" stroke-width="2" points="284.5194,-478.7712 286.7474,-468.4133 278.5464,-475.121 284.5194,-478.7712"/>
</g>
<!-- 7&#45;&gt;5 -->
<g id="edge9" class="edge">
<title>7&#45;&gt;5</title>
<path fill="none" stroke="#c0c0c0" stroke-width="2" d="M286.8969,-431.8314C281.9326,-423.7079 275.9778,-413.9637 270.5072,-405.0118"/>
<polygon fill="#c0c0c0" stroke="#c0c0c0" stroke-width="2" points="273.4536,-403.121 265.2526,-396.4133 267.4806,-406.7712 273.4536,-403.121"/>
</g>
<!-- 8 -->
<g id="node9" class="node">
<title>8</title>
<path fill="none" stroke="#d8cb56" stroke-width="2" d="M269,-612C269,-612 239,-612 239,-612 233,-612 227,-606 227,-600 227,-600 227,-588 227,-588 227,-582 233,-576 239,-576 239,-576 269,-576 269,-576 275,-576 281,-582 281,-588 281,-588 281,-600 281,-600 281,-606 275,-612 269,-612"/>
<text text-anchor="middle" x="254" y="-591.5" font-family="sans" font-size="10.00" fill="#000000">bwa</text>
</g>
<!-- 8&#45;&gt;6 -->
<g id="edge10" class="edge">
<title>8&#45;&gt;6</title>
<path fill="none" stroke="#c0c0c0" stroke-width="2" d="M254,-575.8314C254,-568.131 254,-558.9743 254,-550.4166"/>
<polygon fill="#c0c0c0" stroke="#c0c0c0" stroke-width="2" points="257.5001,-550.4132 254,-540.4133 250.5001,-550.4133 257.5001,-550.4132"/>
</g>
<!-- 9 -->
<g id="node10" class="node">
<title>9</title>
<path fill="none" stroke="#56d8d8" stroke-width="2" d="M269,-684C269,-684 239,-684 239,-684 233,-684 227,-678 227,-672 227,-672 227,-660 227,-660 227,-654 233,-648 239,-648 239,-648 269,-648 269,-648 275,-648 281,-654 281,-660 281,-660 281,-672 281,-672 281,-678 275,-684 269,-684"/>
<text text-anchor="middle" x="254" y="-663.5" font-family="sans" font-size="10.00" fill="#000000">trim</text>
</g>
<!-- 9&#45;&gt;8 -->
<g id="edge12" class="edge">
<title>9&#45;&gt;8</title>
<path fill="none" stroke="#c0c0c0" stroke-width="2" d="M254,-647.8314C254,-640.131 254,-630.9743 254,-622.4166"/>
<polygon fill="#c0c0c0" stroke="#c0c0c0" stroke-width="2" points="257.5001,-622.4132 254,-612.4133 250.5001,-622.4133 257.5001,-622.4132"/>
</g>
<!-- 10 -->
<g id="node11" class="node">
<title>10</title>
<path fill="none" stroke="#d8c356" stroke-width="2" d="M233.5,-756C233.5,-756 180.5,-756 180.5,-756 174.5,-756 168.5,-750 168.5,-744 168.5,-744 168.5,-732 168.5,-732 168.5,-726 174.5,-720 180.5,-720 180.5,-720 233.5,-720 233.5,-720 239.5,-720 245.5,-726 245.5,-732 245.5,-732 245.5,-744 245.5,-744 245.5,-750 239.5,-756 233.5,-756"/>
<text text-anchor="middle" x="207" y="-735.5" font-family="sans" font-size="10.00" fill="#000000">add_UMI_R1</text>
</g>
<!-- 10&#45;&gt;9 -->
<g id="edge13" class="edge">
<title>10&#45;&gt;9</title>
<path fill="none" stroke="#c0c0c0" stroke-width="2" d="M218.8601,-719.8314C224.1629,-711.7079 230.5237,-701.9637 236.3673,-693.0118"/>
<polygon fill="#c0c0c0" stroke="#c0c0c0" stroke-width="2" points="239.4448,-694.7003 241.9802,-684.4133 233.5831,-690.8739 239.4448,-694.7003"/>
</g>
<!-- 11 -->
<g id="node12" class="node">
<title>11</title>
<path fill="none" stroke="#9fd856" stroke-width="2" d="M328.5,-756C328.5,-756 275.5,-756 275.5,-756 269.5,-756 263.5,-750 263.5,-744 263.5,-744 263.5,-732 263.5,-732 263.5,-726 269.5,-720 275.5,-720 275.5,-720 328.5,-720 328.5,-720 334.5,-720 340.5,-726 340.5,-732 340.5,-732 340.5,-744 340.5,-744 340.5,-750 334.5,-756 328.5,-756"/>
<text text-anchor="middle" x="302" y="-735.5" font-family="sans" font-size="10.00" fill="#000000">add_UMI_R3</text>
</g>
<!-- 11&#45;&gt;9 -->
<g id="edge14" class="edge">
<title>11&#45;&gt;9</title>
<path fill="none" stroke="#c0c0c0" stroke-width="2" d="M289.8876,-719.8314C284.4719,-711.7079 277.9758,-701.9637 272.0079,-693.0118"/>
<polygon fill="#c0c0c0" stroke="#c0c0c0" stroke-width="2" points="274.7347,-690.7923 266.2755,-684.4133 268.9104,-694.6753 274.7347,-690.7923"/>
</g>
<!-- 12 -->
<g id="node13" class="node">
<title>12</title>
<path fill="none" stroke="#56d892" stroke-width="2" d="M146,-833C146,-833 12,-833 12,-833 6,-833 0,-827 0,-821 0,-821 0,-804 0,-804 0,-798 6,-792 12,-792 12,-792 146,-792 146,-792 152,-792 158,-798 158,-804 158,-804 158,-821 158,-821 158,-827 152,-833 146,-833"/>
<text text-anchor="middle" x="79" y="-821" font-family="sans" font-size="10.00" fill="#000000">rejoin_sample</text>
<text text-anchor="middle" x="79" y="-810" font-family="sans" font-size="10.00" fill="#000000">direction: R1</text>
<text text-anchor="middle" x="79" y="-799" font-family="sans" font-size="10.00" fill="#000000">sample: Keimbahn/KB0358_c</text>
</g>
<!-- 12&#45;&gt;10 -->
<g id="edge15" class="edge">
<title>12&#45;&gt;10</title>
<path fill="none" stroke="#c0c0c0" stroke-width="2" d="M114.3154,-791.9453C130.5488,-782.497 149.8867,-771.2417 166.6885,-761.4626"/>
<polygon fill="#c0c0c0" stroke="#c0c0c0" stroke-width="2" points="168.844,-764.2577 175.7261,-756.2024 165.3227,-758.2078 168.844,-764.2577"/>
</g>
<!-- 13 -->
<g id="node14" class="node">
<title>13</title>
<path fill="none" stroke="#56d892" stroke-width="2" d="M322,-833C322,-833 188,-833 188,-833 182,-833 176,-827 176,-821 176,-821 176,-804 176,-804 176,-798 182,-792 188,-792 188,-792 322,-792 322,-792 328,-792 334,-798 334,-804 334,-804 334,-821 334,-821 334,-827 328,-833 322,-833"/>
<text text-anchor="middle" x="255" y="-821" font-family="sans" font-size="10.00" fill="#000000">rejoin_sample</text>
<text text-anchor="middle" x="255" y="-810" font-family="sans" font-size="10.00" fill="#000000">direction: R2</text>
<text text-anchor="middle" x="255" y="-799" font-family="sans" font-size="10.00" fill="#000000">sample: Keimbahn/KB0358_c</text>
</g>
<!-- 13&#45;&gt;10 -->
<g id="edge16" class="edge">
<title>13&#45;&gt;10</title>
<path fill="none" stroke="#c0c0c0" stroke-width="2" d="M241.6293,-791.7476C236.2201,-783.352 229.908,-773.5551 224.1655,-764.6423"/>
<polygon fill="#c0c0c0" stroke="#c0c0c0" stroke-width="2" points="227.0257,-762.6193 218.6673,-756.1087 221.1413,-766.4106 227.0257,-762.6193"/>
</g>
<!-- 13&#45;&gt;11 -->
<g id="edge18" class="edge">
<title>13&#45;&gt;11</title>
<path fill="none" stroke="#c0c0c0" stroke-width="2" d="M268.0921,-791.7476C273.3887,-783.352 279.5692,-773.5551 285.1921,-764.6423"/>
<polygon fill="#c0c0c0" stroke="#c0c0c0" stroke-width="2" points="288.2002,-766.4338 290.5757,-756.1087 282.2799,-762.6988 288.2002,-766.4338"/>
</g>
<!-- 14 -->
<g id="node15" class="node">
<title>14</title>
<path fill="none" stroke="#56d892" stroke-width="2" d="M498,-833C498,-833 364,-833 364,-833 358,-833 352,-827 352,-821 352,-821 352,-804 352,-804 352,-798 358,-792 364,-792 364,-792 498,-792 498,-792 504,-792 510,-798 510,-804 510,-804 510,-821 510,-821 510,-827 504,-833 498,-833"/>
<text text-anchor="middle" x="431" y="-821" font-family="sans" font-size="10.00" fill="#000000">rejoin_sample</text>
<text text-anchor="middle" x="431" y="-810" font-family="sans" font-size="10.00" fill="#000000">direction: R3</text>
<text text-anchor="middle" x="431" y="-799" font-family="sans" font-size="10.00" fill="#000000">sample: Keimbahn/KB0358_c</text>
</g>
<!-- 14&#45;&gt;11 -->
<g id="edge17" class="edge">
<title>14&#45;&gt;11</title>
<path fill="none" stroke="#c0c0c0" stroke-width="2" d="M395.4087,-791.9453C379.0485,-782.497 359.5595,-771.2417 342.6265,-761.4626"/>
<polygon fill="#c0c0c0" stroke="#c0c0c0" stroke-width="2" points="343.9283,-758.1727 333.5183,-756.2024 340.4275,-764.2344 343.9283,-758.1727"/>
</g>
<!-- 15 -->
<g id="node16" class="node">
<title>15</title>
<path fill="none" stroke="#78d856" stroke-width="2" d="M292,-905C292,-905 218,-905 218,-905 212,-905 206,-899 206,-893 206,-893 206,-881 206,-881 206,-875 212,-869 218,-869 218,-869 292,-869 292,-869 298,-869 304,-875 304,-881 304,-881 304,-893 304,-893 304,-899 298,-905 292,-905"/>
<text text-anchor="middle" x="255" y="-884.5" font-family="sans" font-size="10.00" fill="#000000">join_demultiplex</text>
</g>
<!-- 15&#45;&gt;12 -->
<g id="edge19" class="edge">
<title>15&#45;&gt;12</title>
<path fill="none" stroke="#c0c0c0" stroke-width="2" d="M212.3953,-868.9656C189.7528,-859.3812 161.5888,-847.4594 136.9822,-837.0436"/>
<polygon fill="#c0c0c0" stroke="#c0c0c0" stroke-width="2" points="138.318,-833.8084 127.7446,-833.1334 135.5892,-840.2547 138.318,-833.8084"/>
</g>
<!-- 15&#45;&gt;13 -->
<g id="edge20" class="edge">
<title>15&#45;&gt;13</title>
<path fill="none" stroke="#c0c0c0" stroke-width="2" d="M255,-868.9656C255,-861.3118 255,-852.1674 255,-843.4898"/>
<polygon fill="#c0c0c0" stroke="#c0c0c0" stroke-width="2" points="258.5001,-843.2678 255,-833.2679 251.5001,-843.2679 258.5001,-843.2678"/>
</g>
<!-- 15&#45;&gt;14 -->
<g id="edge21" class="edge">
<title>15&#45;&gt;14</title>
<path fill="none" stroke="#c0c0c0" stroke-width="2" d="M297.6047,-868.9656C320.2472,-859.3812 348.4112,-847.4594 373.0178,-837.0436"/>
<polygon fill="#c0c0c0" stroke="#c0c0c0" stroke-width="2" points="374.4108,-840.2547 382.2554,-833.1334 371.682,-833.8084 374.4108,-840.2547"/>
</g>
<!-- 16 -->
<g id="node17" class="node">
<title>16</title>
<path fill="none" stroke="#d8bc56" stroke-width="2" d="M141.5,-977C141.5,-977 90.5,-977 90.5,-977 84.5,-977 78.5,-971 78.5,-965 78.5,-965 78.5,-953 78.5,-953 78.5,-947 84.5,-941 90.5,-941 90.5,-941 141.5,-941 141.5,-941 147.5,-941 153.5,-947 153.5,-953 153.5,-953 153.5,-965 153.5,-965 153.5,-971 147.5,-977 141.5,-977"/>
<text text-anchor="middle" x="116" y="-962" font-family="sans" font-size="10.00" fill="#000000">demultiplex</text>
<text text-anchor="middle" x="116" y="-951" font-family="sans" font-size="10.00" fill="#000000">part: part_1</text>
</g>
<!-- 16&#45;&gt;15 -->
<g id="edge22" class="edge">
<title>16&#45;&gt;15</title>
<path fill="none" stroke="#c0c0c0" stroke-width="2" d="M151.0756,-940.8314C169.2661,-931.4089 191.6658,-919.8062 211.006,-909.7883"/>
<polygon fill="#c0c0c0" stroke="#c0c0c0" stroke-width="2" points="212.666,-912.8701 219.9357,-905.1628 209.4463,-906.6545 212.666,-912.8701"/>
</g>
<!-- 17 -->
<g id="node18" class="node">
<title>17</title>
<path fill="none" stroke="#d8bc56" stroke-width="2" d="M234.5,-977C234.5,-977 183.5,-977 183.5,-977 177.5,-977 171.5,-971 171.5,-965 171.5,-965 171.5,-953 171.5,-953 171.5,-947 177.5,-941 183.5,-941 183.5,-941 234.5,-941 234.5,-941 240.5,-941 246.5,-947 246.5,-953 246.5,-953 246.5,-965 246.5,-965 246.5,-971 240.5,-977 234.5,-977"/>
<text text-anchor="middle" x="209" y="-962" font-family="sans" font-size="10.00" fill="#000000">demultiplex</text>
<text text-anchor="middle" x="209" y="-951" font-family="sans" font-size="10.00" fill="#000000">part: part_2</text>
</g>
<!-- 17&#45;&gt;15 -->
<g id="edge23" class="edge">
<title>17&#45;&gt;15</title>
<path fill="none" stroke="#c0c0c0" stroke-width="2" d="M220.6077,-940.8314C225.7978,-932.7079 232.0232,-922.9637 237.7425,-914.0118"/>
<polygon fill="#c0c0c0" stroke="#c0c0c0" stroke-width="2" points="240.8015,-915.7246 243.236,-905.4133 234.9026,-911.9559 240.8015,-915.7246"/>
</g>
<!-- 18 -->
<g id="node19" class="node">
<title>18</title>
<path fill="none" stroke="#d8bc56" stroke-width="2" d="M327.5,-977C327.5,-977 276.5,-977 276.5,-977 270.5,-977 264.5,-971 264.5,-965 264.5,-965 264.5,-953 264.5,-953 264.5,-947 270.5,-941 276.5,-941 276.5,-941 327.5,-941 327.5,-941 333.5,-941 339.5,-947 339.5,-953 339.5,-953 339.5,-965 339.5,-965 339.5,-971 333.5,-977 327.5,-977"/>
<text text-anchor="middle" x="302" y="-962" font-family="sans" font-size="10.00" fill="#000000">demultiplex</text>
<text text-anchor="middle" x="302" y="-951" font-family="sans" font-size="10.00" fill="#000000">part: part_3</text>
</g>
<!-- 18&#45;&gt;15 -->
<g id="edge24" class="edge">
<title>18&#45;&gt;15</title>
<path fill="none" stroke="#c0c0c0" stroke-width="2" d="M290.1399,-940.8314C284.8371,-932.7079 278.4763,-922.9637 272.6327,-914.0118"/>
<polygon fill="#c0c0c0" stroke="#c0c0c0" stroke-width="2" points="275.4169,-911.8739 267.0198,-905.4133 269.5552,-915.7003 275.4169,-911.8739"/>
</g>
<!-- 19 -->
<g id="node20" class="node">
<title>19</title>
<path fill="none" stroke="#d8bc56" stroke-width="2" d="M420.5,-977C420.5,-977 369.5,-977 369.5,-977 363.5,-977 357.5,-971 357.5,-965 357.5,-965 357.5,-953 357.5,-953 357.5,-947 363.5,-941 369.5,-941 369.5,-941 420.5,-941 420.5,-941 426.5,-941 432.5,-947 432.5,-953 432.5,-953 432.5,-965 432.5,-965 432.5,-971 426.5,-977 420.5,-977"/>
<text text-anchor="middle" x="395" y="-962" font-family="sans" font-size="10.00" fill="#000000">demultiplex</text>
<text text-anchor="middle" x="395" y="-951" font-family="sans" font-size="10.00" fill="#000000">part: part_4</text>
</g>
<!-- 19&#45;&gt;15 -->
<g id="edge25" class="edge">
<title>19&#45;&gt;15</title>
<path fill="none" stroke="#c0c0c0" stroke-width="2" d="M359.6721,-940.8314C341.3507,-931.4089 318.7898,-919.8062 299.3105,-909.7883"/>
<polygon fill="#c0c0c0" stroke="#c0c0c0" stroke-width="2" points="300.8102,-906.6239 290.3166,-905.1628 297.6088,-912.8489 300.8102,-906.6239"/>
</g>
<!-- 20 -->
<g id="node21" class="node">
<title>20</title>
<path fill="none" stroke="#afd856" stroke-width="2" d="M293.5,-1049C293.5,-1049 216.5,-1049 216.5,-1049 210.5,-1049 204.5,-1043 204.5,-1037 204.5,-1037 204.5,-1025 204.5,-1025 204.5,-1019 210.5,-1013 216.5,-1013 216.5,-1013 293.5,-1013 293.5,-1013 299.5,-1013 305.5,-1019 305.5,-1025 305.5,-1025 305.5,-1037 305.5,-1037 305.5,-1043 299.5,-1049 293.5,-1049"/>
<text text-anchor="middle" x="255" y="-1028.5" font-family="sans" font-size="10.00" fill="#000000">split_demultiplex</text>
</g>
<!-- 20&#45;&gt;16 -->
<g id="edge26" class="edge">
<title>20&#45;&gt;16</title>
<path fill="none" stroke="#c0c0c0" stroke-width="2" d="M219.9244,-1012.8314C201.7339,-1003.4089 179.3342,-991.8062 159.994,-981.7883"/>
<polygon fill="#c0c0c0" stroke="#c0c0c0" stroke-width="2" points="161.5537,-978.6545 151.0643,-977.1628 158.334,-984.8701 161.5537,-978.6545"/>
</g>
<!-- 20&#45;&gt;17 -->
<g id="edge27" class="edge">
<title>20&#45;&gt;17</title>
<path fill="none" stroke="#c0c0c0" stroke-width="2" d="M243.3923,-1012.8314C238.2022,-1004.7079 231.9768,-994.9637 226.2575,-986.0118"/>
<polygon fill="#c0c0c0" stroke="#c0c0c0" stroke-width="2" points="229.0974,-983.9559 220.764,-977.4133 223.1985,-987.7246 229.0974,-983.9559"/>
</g>
<!-- 20&#45;&gt;18 -->
<g id="edge28" class="edge">
<title>20&#45;&gt;18</title>
<path fill="none" stroke="#c0c0c0" stroke-width="2" d="M266.8601,-1012.8314C272.1629,-1004.7079 278.5237,-994.9637 284.3673,-986.0118"/>
<polygon fill="#c0c0c0" stroke="#c0c0c0" stroke-width="2" points="287.4448,-987.7003 289.9802,-977.4133 281.5831,-983.8739 287.4448,-987.7003"/>
</g>
<!-- 20&#45;&gt;19 -->
<g id="edge29" class="edge">
<title>20&#45;&gt;19</title>
<path fill="none" stroke="#c0c0c0" stroke-width="2" d="M290.3279,-1012.8314C308.6493,-1003.4089 331.2102,-991.8062 350.6895,-981.7883"/>
<polygon fill="#c0c0c0" stroke="#c0c0c0" stroke-width="2" points="352.3912,-984.8489 359.6834,-977.1628 349.1898,-978.6239 352.3912,-984.8489"/>
</g>
<!-- 21 -->
<g id="node22" class="node">
<title>21</title>
<path fill="none" stroke="#56b9d8" stroke-width="2" d="M371,-1126C371,-1126 139,-1126 139,-1126 133,-1126 127,-1120 127,-1114 127,-1114 127,-1097 127,-1097 127,-1091 133,-1085 139,-1085 139,-1085 371,-1085 371,-1085 377,-1085 383,-1091 383,-1097 383,-1097 383,-1114 383,-1114 383,-1120 377,-1126 371,-1126"/>
<text text-anchor="middle" x="255" y="-1114" font-family="sans" font-size="10.00" fill="#000000">check_complete</text>
<text text-anchor="middle" x="255" y="-1103" font-family="sans" font-size="10.00" fill="#000000">prefix: /gpfs/project/projects/spike/AG_Borkhardt/</text>
<text text-anchor="middle" x="255" y="-1092" font-family="sans" font-size="10.00" fill="#000000">run: 210205_NB552271_0029_AHLT7LBGXH</text>
</g>
<!-- 21&#45;&gt;20 -->
<g id="edge30" class="edge">
<title>21&#45;&gt;20</title>
<path fill="none" stroke="#c0c0c0" stroke-width="2" d="M255,-1084.7476C255,-1076.8767 255,-1067.7743 255,-1059.3232"/>
<polygon fill="#c0c0c0" stroke="#c0c0c0" stroke-width="2" points="258.5001,-1059.1086 255,-1049.1087 251.5001,-1059.1087 258.5001,-1059.1086"/>
</g>
</g>
</svg>
