<?xml version="1.0" encoding="UTF-8" standalone="no"?>
<!DOCTYPE svg PUBLIC "-//W3C//DTD SVG 1.1//EN"
 "http://www.w3.org/Graphics/SVG/1.1/DTD/svg11.dtd">
<!-- Generated by graphviz version 2.40.1 (20161225.0304)
 -->
<!-- Title: snakemake_dag Pages: 1 -->
<svg width="362pt" height="337pt"
 viewBox="0.00 0.00 362.00 337.00" xmlns="http://www.w3.org/2000/svg" xmlns:xlink="http://www.w3.org/1999/xlink">
<g id="graph0" class="graph" transform="scale(1 1) rotate(0) translate(4 333)">
<title>snakemake_dag</title>
<polygon fill="#ffffff" stroke="transparent" points="-4,4 -4,-333 358,-333 358,4 -4,4"/>
<!-- 0 -->
<g id="node1" class="node">
<title>0</title>
<path fill="none" stroke="#d8c356" stroke-width="2" d="M231,-36C231,-36 122,-36 122,-36 116,-36 110,-30 110,-24 110,-24 110,-12 110,-12 110,-6 116,0 122,0 122,0 231,0 231,0 237,0 243,-6 243,-12 243,-12 243,-24 243,-24 243,-30 237,-36 231,-36"/>
<text text-anchor="middle" x="176.5" y="-15.5" font-family="sans" font-size="10.00" fill="#000000">convert_illumina_report</text>
</g>
<!-- 1 -->
<g id="node2" class="node">
<title>1</title>
<path fill="none" stroke="#567bd8" stroke-width="2" d="M202,-108C202,-108 151,-108 151,-108 145,-108 139,-102 139,-96 139,-96 139,-84 139,-84 139,-78 145,-72 151,-72 151,-72 202,-72 202,-72 208,-72 214,-78 214,-84 214,-84 214,-96 214,-96 214,-102 208,-108 202,-108"/>
<text text-anchor="middle" x="176.5" y="-87.5" font-family="sans" font-size="10.00" fill="#000000">yield_report</text>
</g>
<!-- 1&#45;&gt;0 -->
<g id="edge1" class="edge">
<title>1&#45;&gt;0</title>
<path fill="none" stroke="#c0c0c0" stroke-width="2" d="M176.5,-71.8314C176.5,-64.131 176.5,-54.9743 176.5,-46.4166"/>
<polygon fill="#c0c0c0" stroke="#c0c0c0" stroke-width="2" points="180.0001,-46.4132 176.5,-36.4133 173.0001,-46.4133 180.0001,-46.4132"/>
</g>
<!-- 2 -->
<g id="node3" class="node">
<title>2</title>
<path fill="none" stroke="#d8cb56" stroke-width="2" d="M63,-180C63,-180 12,-180 12,-180 6,-180 0,-174 0,-168 0,-168 0,-156 0,-156 0,-150 6,-144 12,-144 12,-144 63,-144 63,-144 69,-144 75,-150 75,-156 75,-156 75,-168 75,-168 75,-174 69,-180 63,-180"/>
<text text-anchor="middle" x="37.5" y="-165" font-family="sans" font-size="10.00" fill="#000000">demultiplex</text>
<text text-anchor="middle" x="37.5" y="-154" font-family="sans" font-size="10.00" fill="#000000">part: part_1</text>
</g>
<!-- 2&#45;&gt;1 -->
<g id="edge2" class="edge">
<title>2&#45;&gt;1</title>
<path fill="none" stroke="#c0c0c0" stroke-width="2" d="M72.5756,-143.8314C90.7661,-134.4089 113.1658,-122.8062 132.506,-112.7883"/>
<polygon fill="#c0c0c0" stroke="#c0c0c0" stroke-width="2" points="134.166,-115.8701 141.4357,-108.1628 130.9463,-109.6545 134.166,-115.8701"/>
</g>
<!-- 3 -->
<g id="node4" class="node">
<title>3</title>
<path fill="none" stroke="#d8cb56" stroke-width="2" d="M156,-180C156,-180 105,-180 105,-180 99,-180 93,-174 93,-168 93,-168 93,-156 93,-156 93,-150 99,-144 105,-144 105,-144 156,-144 156,-144 162,-144 168,-150 168,-156 168,-156 168,-168 168,-168 168,-174 162,-180 156,-180"/>
<text text-anchor="middle" x="130.5" y="-165" font-family="sans" font-size="10.00" fill="#000000">demultiplex</text>
<text text-anchor="middle" x="130.5" y="-154" font-family="sans" font-size="10.00" fill="#000000">part: part_2</text>
</g>
<!-- 3&#45;&gt;1 -->
<g id="edge3" class="edge">
<title>3&#45;&gt;1</title>
<path fill="none" stroke="#c0c0c0" stroke-width="2" d="M142.1077,-143.8314C147.2978,-135.7079 153.5232,-125.9637 159.2425,-117.0118"/>
<polygon fill="#c0c0c0" stroke="#c0c0c0" stroke-width="2" points="162.3015,-118.7246 164.736,-108.4133 156.4026,-114.9559 162.3015,-118.7246"/>
</g>
<!-- 4 -->
<g id="node5" class="node">
<title>4</title>
<path fill="none" stroke="#d8cb56" stroke-width="2" d="M249,-180C249,-180 198,-180 198,-180 192,-180 186,-174 186,-168 186,-168 186,-156 186,-156 186,-150 192,-144 198,-144 198,-144 249,-144 249,-144 255,-144 261,-150 261,-156 261,-156 261,-168 261,-168 261,-174 255,-180 249,-180"/>
<text text-anchor="middle" x="223.5" y="-165" font-family="sans" font-size="10.00" fill="#000000">demultiplex</text>
<text text-anchor="middle" x="223.5" y="-154" font-family="sans" font-size="10.00" fill="#000000">part: part_3</text>
</g>
<!-- 4&#45;&gt;1 -->
<g id="edge4" class="edge">
<title>4&#45;&gt;1</title>
<path fill="none" stroke="#c0c0c0" stroke-width="2" d="M211.6399,-143.8314C206.3371,-135.7079 199.9763,-125.9637 194.1327,-117.0118"/>
<polygon fill="#c0c0c0" stroke="#c0c0c0" stroke-width="2" points="196.9169,-114.8739 188.5198,-108.4133 191.0552,-118.7003 196.9169,-114.8739"/>
</g>
<!-- 5 -->
<g id="node6" class="node">
<title>5</title>
<path fill="none" stroke="#d8cb56" stroke-width="2" d="M342,-180C342,-180 291,-180 291,-180 285,-180 279,-174 279,-168 279,-168 279,-156 279,-156 279,-150 285,-144 291,-144 291,-144 342,-144 342,-144 348,-144 354,-150 354,-156 354,-156 354,-168 354,-168 354,-174 348,-180 342,-180"/>
<text text-anchor="middle" x="316.5" y="-165" font-family="sans" font-size="10.00" fill="#000000">demultiplex</text>
<text text-anchor="middle" x="316.5" y="-154" font-family="sans" font-size="10.00" fill="#000000">part: part_4</text>
</g>
<!-- 5&#45;&gt;1 -->
<g id="edge5" class="edge">
<title>5&#45;&gt;1</title>
<path fill="none" stroke="#c0c0c0" stroke-width="2" d="M281.1721,-143.8314C262.8507,-134.4089 240.2898,-122.8062 220.8105,-112.7883"/>
<polygon fill="#c0c0c0" stroke="#c0c0c0" stroke-width="2" points="222.3102,-109.6239 211.8166,-108.1628 219.1088,-115.8489 222.3102,-109.6239"/>
</g>
<!-- 6 -->
<g id="node7" class="node">
<title>6</title>
<path fill="none" stroke="#9fd856" stroke-width="2" d="M215,-252C215,-252 138,-252 138,-252 132,-252 126,-246 126,-240 126,-240 126,-228 126,-228 126,-222 132,-216 138,-216 138,-216 215,-216 215,-216 221,-216 227,-222 227,-228 227,-228 227,-240 227,-240 227,-246 221,-252 215,-252"/>
<text text-anchor="middle" x="176.5" y="-231.5" font-family="sans" font-size="10.00" fill="#000000">split_demultiplex</text>
</g>
<!-- 6&#45;&gt;2 -->
<g id="edge6" class="edge">
<title>6&#45;&gt;2</title>
<path fill="none" stroke="#c0c0c0" stroke-width="2" d="M141.4244,-215.8314C123.2339,-206.4089 100.8342,-194.8062 81.494,-184.7883"/>
<polygon fill="#c0c0c0" stroke="#c0c0c0" stroke-width="2" points="83.0537,-181.6545 72.5643,-180.1628 79.834,-187.8701 83.0537,-181.6545"/>
</g>
<!-- 6&#45;&gt;3 -->
<g id="edge7" class="edge">
<title>6&#45;&gt;3</title>
<path fill="none" stroke="#c0c0c0" stroke-width="2" d="M164.8923,-215.8314C159.7022,-207.7079 153.4768,-197.9637 147.7575,-189.0118"/>
<polygon fill="#c0c0c0" stroke="#c0c0c0" stroke-width="2" points="150.5974,-186.9559 142.264,-180.4133 144.6985,-190.7246 150.5974,-186.9559"/>
</g>
<!-- 6&#45;&gt;4 -->
<g id="edge8" class="edge">
<title>6&#45;&gt;4</title>
<path fill="none" stroke="#c0c0c0" stroke-width="2" d="M188.3601,-215.8314C193.6629,-207.7079 200.0237,-197.9637 205.8673,-189.0118"/>
<polygon fill="#c0c0c0" stroke="#c0c0c0" stroke-width="2" points="208.9448,-190.7003 211.4802,-180.4133 203.0831,-186.8739 208.9448,-190.7003"/>
</g>
<!-- 6&#45;&gt;5 -->
<g id="edge9" class="edge">
<title>6&#45;&gt;5</title>
<path fill="none" stroke="#c0c0c0" stroke-width="2" d="M211.8279,-215.8314C230.1493,-206.4089 252.7102,-194.8062 272.1895,-184.7883"/>
<polygon fill="#c0c0c0" stroke="#c0c0c0" stroke-width="2" points="273.8912,-187.8489 281.1834,-180.1628 270.6898,-181.6239 273.8912,-187.8489"/>
</g>
<!-- 7 -->
<g id="node8" class="node">
<title>7</title>
<path fill="none" stroke="#56d89a" stroke-width="2" d="M292.5,-329C292.5,-329 60.5,-329 60.5,-329 54.5,-329 48.5,-323 48.5,-317 48.5,-317 48.5,-300 48.5,-300 48.5,-294 54.5,-288 60.5,-288 60.5,-288 292.5,-288 292.5,-288 298.5,-288 304.5,-294 304.5,-300 304.5,-300 304.5,-317 304.5,-317 304.5,-323 298.5,-329 292.5,-329"/>
<text text-anchor="middle" x="176.5" y="-317" font-family="sans" font-size="10.00" fill="#000000">check_complete</text>
<text text-anchor="middle" x="176.5" y="-306" font-family="sans" font-size="10.00" fill="#000000">prefix: /gpfs/project/projects/spike/AG_Borkhardt/</text>
<text text-anchor="middle" x="176.5" y="-295" font-family="sans" font-size="10.00" fill="#000000">run: 220321_NB552271_0081_AHLHGHBGXL</text>
</g>
<!-- 7&#45;&gt;6 -->
<g id="edge10" class="edge">
<title>7&#45;&gt;6</title>
<path fill="none" stroke="#c0c0c0" stroke-width="2" d="M176.5,-287.7476C176.5,-279.8767 176.5,-270.7743 176.5,-262.3232"/>
<polygon fill="#c0c0c0" stroke="#c0c0c0" stroke-width="2" points="180.0001,-262.1086 176.5,-252.1087 173.0001,-262.1087 180.0001,-262.1086"/>
</g>
</g>
</svg>
